<mxfile host="65bd71144e" pages="4">
    <diagram id="wKkOcY5gDYYbzL6k_BSN" name="Diagramme de classe">
        <mxGraphModel dx="2577" dy="1818" grid="1" gridSize="10" guides="1" tooltips="1" connect="1" arrows="1" fold="1" page="0" pageScale="1" pageWidth="827" pageHeight="1169" math="0" shadow="0">
            <root>
                <mxCell id="0"/>
                <mxCell id="1" parent="0"/>
                <mxCell id="yoYAKX1P5dWUwAAz9NMA-13" style="edgeStyle=orthogonalEdgeStyle;rounded=0;orthogonalLoop=1;jettySize=auto;html=1;endArrow=none;endFill=0;entryX=0;entryY=0.5;entryDx=0;entryDy=0;" parent="1" source="U3Fh0JSpAQ_HMKzynY-E-5" target="wcK2_SsXAU88zGsK9JyU-15" edge="1">
                    <mxGeometry relative="1" as="geometry"/>
                </mxCell>
                <mxCell id="yoYAKX1P5dWUwAAz9NMA-14" value="1..*" style="edgeLabel;html=1;align=center;verticalAlign=middle;resizable=0;points=[];" parent="yoYAKX1P5dWUwAAz9NMA-13" connectable="0" vertex="1">
                    <mxGeometry x="0.877" y="-2" relative="1" as="geometry">
                        <mxPoint x="4" y="8" as="offset"/>
                    </mxGeometry>
                </mxCell>
                <mxCell id="U3Fh0JSpAQ_HMKzynY-E-5" value="&lt;p style=&quot;margin:0px;margin-top:4px;text-align:center;&quot;&gt;&lt;b&gt;User&lt;/b&gt;&lt;/p&gt;&lt;hr size=&quot;1&quot;&gt;&lt;p style=&quot;margin:0px;margin-left:4px;&quot;&gt;- firstname: String&lt;/p&gt;&lt;p style=&quot;margin:0px;margin-left:4px;&quot;&gt;- lastname: String&lt;/p&gt;&lt;p style=&quot;margin:0px;margin-left:4px;&quot;&gt;- email: String&lt;/p&gt;&lt;p style=&quot;margin:0px;margin-left:4px;&quot;&gt;- password: String&lt;/p&gt;&lt;p style=&quot;margin:0px;margin-left:4px;&quot;&gt;- cellphone: Int&lt;/p&gt;&lt;p style=&quot;margin:0px;margin-left:4px;&quot;&gt;- role: String&lt;/p&gt;&lt;p style=&quot;margin: 0px 0px 0px 4px;&quot;&gt;- createdAt: Datetime&lt;/p&gt;&lt;p style=&quot;margin: 0px 0px 0px 4px;&quot;&gt;- updatedAt: Datetime&lt;/p&gt;&lt;p style=&quot;margin: 0px 0px 0px 4px;&quot;&gt;- listPlant: List&lt;/p&gt;&lt;p style=&quot;margin: 0px 0px 0px 4px;&quot;&gt;- listDemande: List&lt;br&gt;&lt;/p&gt;&lt;p style=&quot;margin: 0px 0px 0px 4px;&quot;&gt;- listComment: List&lt;br&gt;&lt;/p&gt;&lt;hr size=&quot;1&quot;&gt;&lt;p style=&quot;margin:0px;margin-left:4px;&quot;&gt;+ addPlant(): Type&lt;/p&gt;&lt;p style=&quot;margin:0px;margin-left:4px;&quot;&gt;+ deletePlantPlant(): Type&lt;br&gt;&lt;/p&gt;&lt;p style=&quot;margin:0px;margin-left:4px;&quot;&gt;+ createRequest(): Type&lt;br&gt;&lt;/p&gt;&lt;p style=&quot;margin:0px;margin-left:4px;&quot;&gt;+ editRequest(): Type&lt;br&gt;&lt;/p&gt;&lt;p style=&quot;margin:0px;margin-left:4px;&quot;&gt;&lt;span style=&quot;background-color: initial;&quot;&gt;+ deleteRequest(): Type&lt;/span&gt;&lt;br&gt;&lt;/p&gt;&lt;p style=&quot;margin:0px;margin-left:4px;&quot;&gt;+ addComment(): Type&lt;br&gt;&lt;/p&gt;&lt;p style=&quot;margin:0px;margin-left:4px;&quot;&gt;+ deleteComment(): Type&lt;br&gt;&lt;/p&gt;" style="verticalAlign=top;align=left;overflow=fill;fontSize=12;fontFamily=Helvetica;html=1;" parent="1" vertex="1">
                    <mxGeometry x="362" y="-10" width="163" height="320" as="geometry"/>
                </mxCell>
                <mxCell id="yoYAKX1P5dWUwAAz9NMA-33" style="edgeStyle=orthogonalEdgeStyle;rounded=0;orthogonalLoop=1;jettySize=auto;html=1;endArrow=none;endFill=0;" parent="1" source="U3Fh0JSpAQ_HMKzynY-E-6" target="yoYAKX1P5dWUwAAz9NMA-1" edge="1">
                    <mxGeometry relative="1" as="geometry">
                        <Array as="points">
                            <mxPoint x="1370" y="1040"/>
                        </Array>
                    </mxGeometry>
                </mxCell>
                <mxCell id="yoYAKX1P5dWUwAAz9NMA-34" value="1" style="edgeLabel;html=1;align=center;verticalAlign=middle;resizable=0;points=[];" parent="yoYAKX1P5dWUwAAz9NMA-33" connectable="0" vertex="1">
                    <mxGeometry x="0.9562" y="1" relative="1" as="geometry">
                        <mxPoint x="-16" y="7" as="offset"/>
                    </mxGeometry>
                </mxCell>
                <mxCell id="yoYAKX1P5dWUwAAz9NMA-35" value="*" style="edgeLabel;html=1;align=center;verticalAlign=middle;resizable=0;points=[];" parent="yoYAKX1P5dWUwAAz9NMA-33" connectable="0" vertex="1">
                    <mxGeometry x="-0.8098" y="2" relative="1" as="geometry">
                        <mxPoint x="3" y="-97" as="offset"/>
                    </mxGeometry>
                </mxCell>
                <mxCell id="U3Fh0JSpAQ_HMKzynY-E-6" value="&lt;p style=&quot;margin:0px;margin-top:4px;text-align:center;&quot;&gt;&lt;b&gt;Plant&lt;/b&gt;&lt;/p&gt;&lt;hr size=&quot;1&quot;&gt;&lt;p style=&quot;margin:0px;margin-left:4px;&quot;&gt;+ name: String&lt;/p&gt;&lt;p style=&quot;margin:0px;margin-left:4px;&quot;&gt;+ species: String&lt;/p&gt;&lt;p style=&quot;margin:0px;margin-left:4px;&quot;&gt;+ description: String&lt;/p&gt;&lt;p style=&quot;margin:0px;margin-left:4px;&quot;&gt;+ gotAt: Datetime&lt;/p&gt;&lt;p style=&quot;margin:0px;margin-left:4px;&quot;&gt;+ createdAt: Datetime&lt;/p&gt;&lt;p style=&quot;margin:0px;margin-left:4px;&quot;&gt;+ updatedAt: Datetime&lt;/p&gt;&lt;p style=&quot;margin:0px;margin-left:4px;&quot;&gt;- photos:&amp;nbsp; (IF&amp;nbsp;&lt;/p&gt;system external&lt;span style=&quot;background-color: initial;&quot;&gt;)&lt;/span&gt;&lt;br&gt;&lt;hr size=&quot;1&quot;&gt;&lt;p style=&quot;margin:0px;margin-left:4px;&quot;&gt;+ editInfo(): Type&lt;/p&gt;&lt;p style=&quot;margin:0px;margin-left:4px;&quot;&gt;+ deleteInfo(): Type&lt;br&gt;&lt;/p&gt;" style="verticalAlign=top;align=left;overflow=fill;fontSize=12;fontFamily=Helvetica;html=1;" parent="1" vertex="1">
                    <mxGeometry x="1290" y="570" width="160" height="200" as="geometry"/>
                </mxCell>
                <mxCell id="yoYAKX1P5dWUwAAz9NMA-19" style="edgeStyle=orthogonalEdgeStyle;rounded=0;orthogonalLoop=1;jettySize=auto;html=1;endArrow=none;endFill=0;startArrow=diamondThin;startFill=0;startSize=20;" parent="1" source="U3Fh0JSpAQ_HMKzynY-E-7" target="U3Fh0JSpAQ_HMKzynY-E-6" edge="1">
                    <mxGeometry relative="1" as="geometry">
                        <mxPoint x="1570" y="670" as="sourcePoint"/>
                    </mxGeometry>
                </mxCell>
                <mxCell id="yoYAKX1P5dWUwAAz9NMA-20" value="1..*" style="edgeLabel;html=1;align=center;verticalAlign=middle;resizable=0;points=[];" parent="yoYAKX1P5dWUwAAz9NMA-19" connectable="0" vertex="1">
                    <mxGeometry x="-0.5641" y="1" relative="1" as="geometry">
                        <mxPoint x="14" y="19" as="offset"/>
                    </mxGeometry>
                </mxCell>
                <mxCell id="U3Fh0JSpAQ_HMKzynY-E-7" value="&lt;p style=&quot;margin:0px;margin-top:4px;text-align:center;&quot;&gt;&lt;b&gt;Photo&lt;/b&gt;&lt;/p&gt;&lt;hr size=&quot;1&quot;&gt;&lt;p style=&quot;margin:0px;margin-left:4px;&quot;&gt;+ Ã€ voir: Wilfried&lt;/p&gt;&lt;p style=&quot;margin: 0px 0px 0px 4px;&quot;&gt;+ createdAt: Datetime&lt;/p&gt;&lt;p style=&quot;margin:0px;margin-left:4px;&quot;&gt;&lt;span style=&quot;background-color: initial;&quot;&gt;+ updatedAt: Datetime&lt;/span&gt;&lt;/p&gt;&lt;p style=&quot;margin:0px;margin-left:4px;&quot;&gt;&lt;span style=&quot;background-color: initial;&quot;&gt;&amp;nbsp;&lt;/span&gt;&lt;br&gt;&lt;/p&gt;&lt;hr size=&quot;1&quot;&gt;&lt;p style=&quot;margin:0px;margin-left:4px;&quot;&gt;+ method(): Type&lt;/p&gt;" style="verticalAlign=top;align=left;overflow=fill;fontSize=12;fontFamily=Helvetica;html=1;" parent="1" vertex="1">
                    <mxGeometry x="1600" y="605" width="160" height="130" as="geometry"/>
                </mxCell>
                <mxCell id="yoYAKX1P5dWUwAAz9NMA-23" style="edgeStyle=orthogonalEdgeStyle;rounded=0;orthogonalLoop=1;jettySize=auto;html=1;endArrow=diamondThin;endFill=0;startSize=6;endSize=20;" parent="1" source="U3Fh0JSpAQ_HMKzynY-E-10" target="U3Fh0JSpAQ_HMKzynY-E-6" edge="1">
                    <mxGeometry relative="1" as="geometry"/>
                </mxCell>
                <mxCell id="yoYAKX1P5dWUwAAz9NMA-24" value="*" style="edgeLabel;html=1;align=center;verticalAlign=middle;resizable=0;points=[];fillColor=#1D0A07;" parent="yoYAKX1P5dWUwAAz9NMA-23" connectable="0" vertex="1">
                    <mxGeometry x="-0.8442" y="-1" relative="1" as="geometry">
                        <mxPoint x="-6" y="8" as="offset"/>
                    </mxGeometry>
                </mxCell>
                <mxCell id="yoYAKX1P5dWUwAAz9NMA-5" style="edgeStyle=orthogonalEdgeStyle;rounded=0;orthogonalLoop=1;jettySize=auto;html=1;endArrow=none;endFill=0;startArrow=diamondThin;startFill=0;startSize=20;" parent="1" source="U3Fh0JSpAQ_HMKzynY-E-11" target="U3Fh0JSpAQ_HMKzynY-E-10" edge="1">
                    <mxGeometry relative="1" as="geometry"/>
                </mxCell>
                <mxCell id="yoYAKX1P5dWUwAAz9NMA-8" value="*" style="edgeLabel;html=1;align=center;verticalAlign=middle;resizable=0;points=[];" parent="yoYAKX1P5dWUwAAz9NMA-5" connectable="0" vertex="1">
                    <mxGeometry x="-0.7718" y="2" relative="1" as="geometry">
                        <mxPoint x="-17" y="18" as="offset"/>
                    </mxGeometry>
                </mxCell>
                <mxCell id="yoYAKX1P5dWUwAAz9NMA-30" style="edgeStyle=orthogonalEdgeStyle;rounded=0;orthogonalLoop=1;jettySize=auto;html=1;endArrow=none;endFill=0;" parent="1" source="U3Fh0JSpAQ_HMKzynY-E-11" target="U3Fh0JSpAQ_HMKzynY-E-5" edge="1">
                    <mxGeometry relative="1" as="geometry">
                        <Array as="points">
                            <mxPoint x="500" y="670"/>
                        </Array>
                    </mxGeometry>
                </mxCell>
                <mxCell id="yoYAKX1P5dWUwAAz9NMA-31" value="*" style="edgeLabel;html=1;align=center;verticalAlign=middle;resizable=0;points=[];" parent="yoYAKX1P5dWUwAAz9NMA-30" connectable="0" vertex="1">
                    <mxGeometry x="-0.9328" y="1" relative="1" as="geometry">
                        <mxPoint x="8" y="8" as="offset"/>
                    </mxGeometry>
                </mxCell>
                <mxCell id="yoYAKX1P5dWUwAAz9NMA-32" value="1" style="edgeLabel;html=1;align=center;verticalAlign=middle;resizable=0;points=[];" parent="yoYAKX1P5dWUwAAz9NMA-30" connectable="0" vertex="1">
                    <mxGeometry x="0.9432" relative="1" as="geometry">
                        <mxPoint x="7" y="-3" as="offset"/>
                    </mxGeometry>
                </mxCell>
                <mxCell id="U3Fh0JSpAQ_HMKzynY-E-11" value="&lt;p style=&quot;margin:0px;margin-top:4px;text-align:center;&quot;&gt;&lt;b&gt;Comment&lt;/b&gt;&lt;/p&gt;&lt;hr size=&quot;1&quot;&gt;&lt;p style=&quot;margin:0px;margin-left:4px;&quot;&gt;&lt;span style=&quot;background-color: initial;&quot;&gt;- content: String&lt;/span&gt;&lt;br&gt;&lt;/p&gt;&lt;p style=&quot;margin: 0px 0px 0px 4px;&quot;&gt;- createdAt: Datetime&lt;/p&gt;&lt;p style=&quot;margin: 0px 0px 0px 4px;&quot;&gt;- updatedAt: Datetime&lt;/p&gt;&lt;p style=&quot;margin:0px;margin-left:4px;&quot;&gt;- userWhoComment&amp;nbsp;&lt;/p&gt;&lt;hr size=&quot;1&quot;&gt;&lt;p style=&quot;margin:0px;margin-left:4px;&quot;&gt;+ editText()&lt;/p&gt;&lt;p style=&quot;margin:0px;margin-left:4px;&quot;&gt;+ deleteText()&lt;br&gt;&lt;/p&gt;" style="verticalAlign=top;align=left;overflow=fill;fontSize=12;fontFamily=Helvetica;html=1;" parent="1" vertex="1">
                    <mxGeometry x="630" y="585" width="160" height="170" as="geometry"/>
                </mxCell>
                <mxCell id="yoYAKX1P5dWUwAAz9NMA-10" style="edgeStyle=orthogonalEdgeStyle;rounded=0;orthogonalLoop=1;jettySize=auto;html=1;endArrow=none;endFill=0;startArrow=diamondThin;startFill=0;startSize=20;" parent="1" source="U3Fh0JSpAQ_HMKzynY-E-12" target="U3Fh0JSpAQ_HMKzynY-E-13" edge="1">
                    <mxGeometry relative="1" as="geometry"/>
                </mxCell>
                <mxCell id="yoYAKX1P5dWUwAAz9NMA-11" value="1..*" style="edgeLabel;html=1;align=center;verticalAlign=middle;resizable=0;points=[];" parent="yoYAKX1P5dWUwAAz9NMA-10" connectable="0" vertex="1">
                    <mxGeometry x="-0.9011" relative="1" as="geometry">
                        <mxPoint x="4" y="16" as="offset"/>
                    </mxGeometry>
                </mxCell>
                <mxCell id="U3Fh0JSpAQ_HMKzynY-E-12" value="&lt;p style=&quot;margin:0px;margin-top:4px;text-align:center;&quot;&gt;&lt;b&gt;Certificate&lt;/b&gt;&lt;/p&gt;&lt;hr size=&quot;1&quot;&gt;&lt;p style=&quot;margin:0px;margin-left:4px;&quot;&gt;&lt;span style=&quot;background-color: initial;&quot;&gt;+ src: String&lt;/span&gt;&lt;/p&gt;&lt;p style=&quot;margin:0px;margin-left:4px;&quot;&gt;&amp;nbsp;&lt;/p&gt;&lt;hr size=&quot;1&quot;&gt;&lt;p style=&quot;margin:0px;margin-left:4px;&quot;&gt;+ method(): Type&lt;/p&gt;" style="verticalAlign=top;align=left;overflow=fill;fontSize=12;fontFamily=Helvetica;html=1;" parent="1" vertex="1">
                    <mxGeometry x="-30" y="772.5" width="160" height="100" as="geometry"/>
                </mxCell>
                <mxCell id="yoYAKX1P5dWUwAAz9NMA-2" style="edgeStyle=orthogonalEdgeStyle;rounded=0;orthogonalLoop=1;jettySize=auto;html=1;endArrow=block;endFill=0;strokeWidth=1;endSize=20;" parent="1" source="U3Fh0JSpAQ_HMKzynY-E-13" target="U3Fh0JSpAQ_HMKzynY-E-5" edge="1">
                    <mxGeometry relative="1" as="geometry"/>
                </mxCell>
                <mxCell id="U3Fh0JSpAQ_HMKzynY-E-13" value="&lt;p style=&quot;margin:0px;margin-top:4px;text-align:center;&quot;&gt;&lt;b&gt;Botanist&lt;/b&gt;&lt;/p&gt;&lt;hr size=&quot;1&quot;&gt;&lt;p style=&quot;margin:0px;margin-left:4px;&quot;&gt;- isVerified: Boolean&lt;/p&gt;&lt;hr size=&quot;1&quot;&gt;&lt;p style=&quot;margin:0px;margin-left:4px;&quot;&gt;+ acceptAppointment&lt;/p&gt;&lt;p style=&quot;margin:0px;margin-left:4px;&quot;&gt;+ declineAppointment&lt;br&gt;&lt;/p&gt;&lt;p style=&quot;margin:0px;margin-left:4px;&quot;&gt;+ giveAppointment&lt;br&gt;&lt;/p&gt;&lt;p style=&quot;margin:0px;margin-left:4px;&quot;&gt;+ editAppointment&lt;br&gt;&lt;/p&gt;&lt;p style=&quot;margin:0px;margin-left:4px;&quot;&gt;+ deleteAppointment&lt;br&gt;&lt;/p&gt;" style="verticalAlign=top;align=left;overflow=fill;fontSize=12;fontFamily=Helvetica;html=1;" parent="1" vertex="1">
                    <mxGeometry x="210" y="755" width="140" height="135" as="geometry"/>
                </mxCell>
                <mxCell id="UA7AjnowPPmPT0jhDamU-1" value="&lt;font style=&quot;font-size: 19px;&quot;&gt;!IMPORTANT : Les donnes ne sont pas a jour : Se referer au dictionnaire de donnes dans CDA - GreenCare/Conception/Merise (Notion)&lt;/font&gt;" style="text;html=1;align=center;verticalAlign=middle;whiteSpace=wrap;rounded=0;" parent="1" vertex="1">
                    <mxGeometry x="230" y="-290" width="660" height="30" as="geometry"/>
                </mxCell>
                <mxCell id="yoYAKX1P5dWUwAAz9NMA-36" style="edgeStyle=orthogonalEdgeStyle;rounded=0;orthogonalLoop=1;jettySize=auto;html=1;endArrow=none;endFill=0;startArrow=diamondThin;startFill=0;startSize=20;exitX=0.5;exitY=1;exitDx=0;exitDy=0;" parent="1" source="wcK2_SsXAU88zGsK9JyU-15" target="U3Fh0JSpAQ_HMKzynY-E-6" edge="1">
                    <mxGeometry relative="1" as="geometry"/>
                </mxCell>
                <mxCell id="yoYAKX1P5dWUwAAz9NMA-37" value="*" style="edgeLabel;html=1;align=center;verticalAlign=middle;resizable=0;points=[];" parent="yoYAKX1P5dWUwAAz9NMA-36" connectable="0" vertex="1">
                    <mxGeometry x="-0.918" relative="1" as="geometry">
                        <mxPoint x="-16" y="-22" as="offset"/>
                    </mxGeometry>
                </mxCell>
                <mxCell id="yoYAKX1P5dWUwAAz9NMA-38" value="*" style="edgeLabel;html=1;align=center;verticalAlign=middle;resizable=0;points=[];" parent="yoYAKX1P5dWUwAAz9NMA-36" connectable="0" vertex="1">
                    <mxGeometry x="0.9682" y="-2" relative="1" as="geometry">
                        <mxPoint x="6" y="4" as="offset"/>
                    </mxGeometry>
                </mxCell>
                <mxCell id="GKCTTzOeFIz7plYYtuQq-2" value="&lt;p style=&quot;margin:0px;margin-top:4px;text-align:center;&quot;&gt;&lt;b&gt;Appointment&lt;/b&gt;&lt;/p&gt;&lt;hr size=&quot;1&quot;&gt;&lt;div&gt;- adress: string&lt;br&gt;&lt;/div&gt;&lt;div&gt;- botanistConcerned: string&lt;br&gt;&lt;/div&gt;&lt;hr size=&quot;1&quot;&gt;&lt;p style=&quot;margin:0px;margin-left:4px;&quot;&gt;+ changeAddress()&lt;/p&gt;&lt;p style=&quot;margin:0px;margin-left:4px;&quot;&gt;+ changeDateAndTime()&lt;br&gt;&lt;/p&gt;" style="verticalAlign=top;align=left;overflow=fill;fontSize=12;fontFamily=Helvetica;html=1;" parent="1" vertex="1">
                    <mxGeometry x="960" y="-130" width="160" height="120" as="geometry"/>
                </mxCell>
                <mxCell id="yoYAKX1P5dWUwAAz9NMA-26" style="edgeStyle=orthogonalEdgeStyle;rounded=0;orthogonalLoop=1;jettySize=auto;html=1;endArrow=none;endFill=0;" parent="1" source="yoYAKX1P5dWUwAAz9NMA-1" target="U3Fh0JSpAQ_HMKzynY-E-10" edge="1">
                    <mxGeometry relative="1" as="geometry"/>
                </mxCell>
                <mxCell id="yoYAKX1P5dWUwAAz9NMA-27" value="*" style="edgeLabel;html=1;align=center;verticalAlign=middle;resizable=0;points=[];fillColor=#1D0A07;" parent="yoYAKX1P5dWUwAAz9NMA-26" connectable="0" vertex="1">
                    <mxGeometry x="0.7008" y="1" relative="1" as="geometry">
                        <mxPoint x="8" y="-106" as="offset"/>
                    </mxGeometry>
                </mxCell>
                <mxCell id="yoYAKX1P5dWUwAAz9NMA-29" value="1" style="edgeLabel;html=1;align=center;verticalAlign=middle;resizable=0;points=[];" parent="yoYAKX1P5dWUwAAz9NMA-26" connectable="0" vertex="1">
                    <mxGeometry x="-0.9675" y="2" relative="1" as="geometry">
                        <mxPoint x="-2" y="11" as="offset"/>
                    </mxGeometry>
                </mxCell>
                <mxCell id="yoYAKX1P5dWUwAAz9NMA-1" value="&lt;p style=&quot;margin:0px;margin-top:4px;text-align:center;&quot;&gt;&lt;b&gt;Particular&lt;/b&gt;&lt;/p&gt;&lt;hr size=&quot;1&quot;&gt;&lt;p style=&quot;margin:0px;margin-left:4px;&quot;&gt;- address: String&lt;br&gt;&lt;/p&gt;&lt;p style=&quot;margin:0px;margin-left:4px;&quot;&gt;- Appointment : list&lt;/p&gt;&lt;hr size=&quot;1&quot;&gt;&lt;p style=&quot;margin:0px;margin-left:4px;&quot;&gt;+ createAppointment()&lt;/p&gt;&lt;p style=&quot;margin:0px;margin-left:4px;&quot;&gt;+ editAppointment()&lt;br&gt;&lt;/p&gt;&lt;p style=&quot;margin:0px;margin-left:4px;&quot;&gt;+ deleteAppointment()&lt;br&gt;&lt;/p&gt;" style="verticalAlign=top;align=left;overflow=fill;fontSize=12;fontFamily=Helvetica;html=1;" parent="1" vertex="1">
                    <mxGeometry x="373" y="940" width="140" height="120" as="geometry"/>
                </mxCell>
                <mxCell id="yoYAKX1P5dWUwAAz9NMA-4" style="edgeStyle=orthogonalEdgeStyle;rounded=0;orthogonalLoop=1;jettySize=auto;html=1;endArrow=block;endFill=0;strokeWidth=1;endSize=20;" parent="1" source="yoYAKX1P5dWUwAAz9NMA-1" target="U3Fh0JSpAQ_HMKzynY-E-5" edge="1">
                    <mxGeometry relative="1" as="geometry">
                        <mxPoint x="287" y="150" as="sourcePoint"/>
                        <mxPoint x="390" y="60" as="targetPoint"/>
                    </mxGeometry>
                </mxCell>
                <mxCell id="yoYAKX1P5dWUwAAz9NMA-9" value="1" style="edgeLabel;html=1;align=center;verticalAlign=middle;resizable=0;points=[];fillColor=#1D0A07;" parent="1" connectable="0" vertex="1">
                    <mxGeometry x="970.0011111111112" y="673" as="geometry">
                        <mxPoint x="-2" y="8" as="offset"/>
                    </mxGeometry>
                </mxCell>
                <mxCell id="yoYAKX1P5dWUwAAz9NMA-12" value="1" style="edgeLabel;html=1;align=center;verticalAlign=middle;resizable=0;points=[];" parent="1" connectable="0" vertex="1">
                    <mxGeometry x="205.00403508771922" y="837" as="geometry">
                        <mxPoint x="-2" y="-6" as="offset"/>
                    </mxGeometry>
                </mxCell>
                <mxCell id="yoYAKX1P5dWUwAAz9NMA-15" value="*" style="edgeLabel;html=1;align=center;verticalAlign=middle;resizable=0;points=[];" parent="1" connectable="0" vertex="1">
                    <mxGeometry x="532.000909090909" y="163" as="geometry"/>
                </mxCell>
                <mxCell id="yoYAKX1P5dWUwAAz9NMA-21" value="1" style="edgeLabel;html=1;align=center;verticalAlign=middle;resizable=0;points=[];" parent="1" connectable="0" vertex="1">
                    <mxGeometry x="1459.996666666667" y="690" as="geometry"/>
                </mxCell>
                <mxCell id="yoYAKX1P5dWUwAAz9NMA-25" value="1..*" style="edgeLabel;html=1;align=center;verticalAlign=middle;resizable=0;points=[];" parent="1" connectable="0" vertex="1">
                    <mxGeometry x="1280.0044067796612" y="690" as="geometry">
                        <mxPoint y="-6" as="offset"/>
                    </mxGeometry>
                </mxCell>
                <mxCell id="wcK2_SsXAU88zGsK9JyU-4" value="&lt;p style=&quot;margin:0px;margin-top:4px;text-align:center;&quot;&gt;&lt;b&gt;Admin&lt;/b&gt;&lt;/p&gt;&lt;hr size=&quot;1&quot;&gt;&lt;p style=&quot;margin:0px;margin-left:4px;&quot;&gt;+ user : list&lt;/p&gt;&lt;hr size=&quot;1&quot;&gt;&lt;p style=&quot;margin:0px;margin-left:4px;&quot;&gt;+ addUser(): Type&lt;/p&gt;&lt;p style=&quot;margin:0px;margin-left:4px;&quot;&gt;+ editUser(): Type&lt;br&gt;&lt;/p&gt;&lt;p style=&quot;margin:0px;margin-left:4px;&quot;&gt;+ deleteUser(): Type&lt;br&gt;&lt;/p&gt;&lt;p style=&quot;margin:0px;margin-left:4px;&quot;&gt;+ validateBotanisteSupportingDoc(): Type&lt;br&gt;&lt;/p&gt;&lt;p style=&quot;margin:0px;margin-left:4px;&quot;&gt;+ rejectBotanisteSupportingDoc(): Type&lt;br&gt;&lt;/p&gt;" style="verticalAlign=top;align=left;overflow=fill;fontSize=12;fontFamily=Helvetica;html=1;" parent="1" vertex="1">
                    <mxGeometry x="70" y="420" width="242" height="140" as="geometry"/>
                </mxCell>
                <mxCell id="wcK2_SsXAU88zGsK9JyU-5" value="1" style="edgeLabel;html=1;align=center;verticalAlign=middle;resizable=0;points=[];" parent="1" connectable="0" vertex="1">
                    <mxGeometry x="167.00403508771922" y="502" as="geometry">
                        <mxPoint x="-2" y="-6" as="offset"/>
                    </mxGeometry>
                </mxCell>
                <mxCell id="wcK2_SsXAU88zGsK9JyU-6" style="edgeStyle=orthogonalEdgeStyle;rounded=0;orthogonalLoop=1;jettySize=auto;html=1;endArrow=block;endFill=0;strokeWidth=1;endSize=20;exitX=1;exitY=0.5;exitDx=0;exitDy=0;" parent="1" source="wcK2_SsXAU88zGsK9JyU-4" edge="1">
                    <mxGeometry relative="1" as="geometry">
                        <mxPoint x="453" y="950" as="sourcePoint"/>
                        <mxPoint x="443" y="310" as="targetPoint"/>
                    </mxGeometry>
                </mxCell>
                <mxCell id="wcK2_SsXAU88zGsK9JyU-12" value="&lt;p style=&quot;margin:0px;margin-top:4px;text-align:center;&quot;&gt;&lt;b&gt;Advice&lt;/b&gt;&lt;/p&gt;&lt;hr size=&quot;1&quot;&gt;&lt;div&gt;- botanisteConcerned: string&lt;br&gt;&lt;/div&gt;&lt;hr size=&quot;1&quot;&gt;&lt;p style=&quot;margin:0px;margin-left:4px;&quot;&gt;+ editContent&lt;/p&gt;&lt;p style=&quot;margin:0px;margin-left:4px;&quot;&gt;+ deleteContent&lt;br&gt;&lt;/p&gt;" style="verticalAlign=top;align=left;overflow=fill;fontSize=12;fontFamily=Helvetica;html=1;" parent="1" vertex="1">
                    <mxGeometry x="720" y="-130" width="160" height="100" as="geometry"/>
                </mxCell>
                <mxCell id="wcK2_SsXAU88zGsK9JyU-15" value="&lt;p style=&quot;margin:0px;margin-top:4px;text-align:center;&quot;&gt;&lt;b&gt;Request&lt;/b&gt;&lt;/p&gt;&lt;hr size=&quot;1&quot;&gt;&lt;div&gt;- title : string&lt;/div&gt;&lt;div&gt;- description : text&lt;/div&gt;&lt;div&gt;-&amp;nbsp;&lt;span style=&quot;background-color: initial;&quot;&gt;date: Datetime&lt;/span&gt;&lt;/div&gt;&lt;div&gt;- type: String (pres|dist)&lt;/div&gt;&lt;div&gt;- link: String&lt;br&gt;&lt;/div&gt;&lt;div&gt;- plantConcerned: ID&lt;/div&gt;&lt;div&gt;- status: String&lt;/div&gt;&lt;div&gt;- createdAt : Datetime&lt;/div&gt;&lt;div&gt;- updatedAt : Datetime&lt;/div&gt;&lt;hr size=&quot;1&quot;&gt;&lt;p style=&quot;margin:0px;margin-left:4px;&quot;&gt;+ method(): Type&lt;/p&gt;" style="verticalAlign=top;align=left;overflow=fill;fontSize=12;fontFamily=Helvetica;html=1;" parent="1" vertex="1">
                    <mxGeometry x="810" y="52.5" width="160" height="195" as="geometry"/>
                </mxCell>
                <mxCell id="wcK2_SsXAU88zGsK9JyU-17" style="edgeStyle=orthogonalEdgeStyle;rounded=0;orthogonalLoop=1;jettySize=auto;html=1;endArrow=block;endFill=0;strokeWidth=1;endSize=20;entryX=0.5;entryY=0;entryDx=0;entryDy=0;exitX=0.5;exitY=1;exitDx=0;exitDy=0;" parent="1" source="wcK2_SsXAU88zGsK9JyU-12" target="wcK2_SsXAU88zGsK9JyU-15" edge="1">
                    <mxGeometry relative="1" as="geometry">
                        <mxPoint x="990" as="sourcePoint"/>
                        <mxPoint x="875.21" y="150" as="targetPoint"/>
                    </mxGeometry>
                </mxCell>
                <mxCell id="wcK2_SsXAU88zGsK9JyU-18" style="edgeStyle=orthogonalEdgeStyle;rounded=0;orthogonalLoop=1;jettySize=auto;html=1;endArrow=block;endFill=0;strokeWidth=1;endSize=20;entryX=0.75;entryY=0;entryDx=0;entryDy=0;exitX=0;exitY=0.5;exitDx=0;exitDy=0;" parent="1" source="GKCTTzOeFIz7plYYtuQq-2" target="wcK2_SsXAU88zGsK9JyU-15" edge="1">
                    <mxGeometry relative="1" as="geometry">
                        <mxPoint x="1000" y="10" as="sourcePoint"/>
                        <mxPoint x="880" y="180" as="targetPoint"/>
                    </mxGeometry>
                </mxCell>
                <mxCell id="ccYXBUsSf59Rllel3PBi-1" value="Post = Request : Mais, si Forum communaitaire ajoute a l'app =&amp;gt; Usefull" style="text;html=1;strokeColor=none;fillColor=none;align=center;verticalAlign=middle;whiteSpace=wrap;rounded=0;labelBackgroundColor=default;fontColor=#FAFAFA;" parent="1" vertex="1">
                    <mxGeometry x="987" y="530" width="133" height="30" as="geometry"/>
                </mxCell>
                <mxCell id="U3Fh0JSpAQ_HMKzynY-E-10" value="&lt;p style=&quot;margin:0px;margin-top:4px;text-align:center;&quot;&gt;&lt;b&gt;Post&lt;/b&gt;&lt;/p&gt;&lt;hr size=&quot;1&quot;&gt;&lt;p style=&quot;margin:0px;margin-left:4px;&quot;&gt;- title: String&lt;/p&gt;&lt;p style=&quot;margin:0px;margin-left:4px;&quot;&gt;- content: String&lt;/p&gt;&lt;p style=&quot;margin: 0px 0px 0px 4px;&quot;&gt;- createdAt: Datetime&lt;/p&gt;&lt;p style=&quot;margin: 0px 0px 0px 4px;&quot;&gt;- updatedAt: Datetime&lt;/p&gt;&lt;hr size=&quot;1&quot;&gt;&lt;p style=&quot;margin:0px;margin-left:4px;&quot;&gt;+ create()&lt;/p&gt;&lt;p style=&quot;margin:0px;margin-left:4px;&quot;&gt;+ edit()&lt;br&gt;&lt;/p&gt;&lt;p style=&quot;margin:0px;margin-left:4px;&quot;&gt;+ delete()&lt;br&gt;&lt;/p&gt;&lt;p style=&quot;margin:0px;margin-left:4px;&quot;&gt;+ addLike()&lt;br&gt;&lt;/p&gt;" style="verticalAlign=top;align=left;overflow=fill;fontSize=12;fontFamily=Helvetica;html=1;fillColor=#1D0601;" parent="1" vertex="1">
                    <mxGeometry x="977" y="588" width="160" height="162.5" as="geometry"/>
                </mxCell>
                <mxCell id="ccYXBUsSf59Rllel3PBi-4" value="&lt;p style=&quot;margin:0px;margin-top:4px;text-align:center;&quot;&gt;&lt;b&gt;Address&lt;/b&gt;&lt;/p&gt;&lt;hr size=&quot;1&quot;&gt;&lt;p style=&quot;margin:0px;margin-left:4px;&quot;&gt;&lt;span style=&quot;background-color: initial;&quot;&gt;+ src: String&lt;/span&gt;&lt;/p&gt;&lt;p style=&quot;margin:0px;margin-left:4px;&quot;&gt;&amp;nbsp;&lt;/p&gt;&lt;hr size=&quot;1&quot;&gt;&lt;p style=&quot;margin:0px;margin-left:4px;&quot;&gt;+ method(): Type&lt;/p&gt;" style="verticalAlign=top;align=left;overflow=fill;fontSize=12;fontFamily=Helvetica;html=1;" parent="1" vertex="1">
                    <mxGeometry x="363.5" y="1170" width="160" height="100" as="geometry"/>
                </mxCell>
                <mxCell id="ccYXBUsSf59Rllel3PBi-5" value="1..*" style="edgeLabel;html=1;align=center;verticalAlign=middle;resizable=0;points=[];" parent="1" connectable="0" vertex="1">
                    <mxGeometry x="99.99571428571421" y="70" as="geometry">
                        <mxPoint x="365" y="1082" as="offset"/>
                    </mxGeometry>
                </mxCell>
                <mxCell id="ccYXBUsSf59Rllel3PBi-6" style="edgeStyle=orthogonalEdgeStyle;rounded=0;orthogonalLoop=1;jettySize=auto;html=1;endArrow=none;endFill=0;startArrow=diamondThin;startFill=0;startSize=20;exitX=0.5;exitY=0;exitDx=0;exitDy=0;" parent="1" source="ccYXBUsSf59Rllel3PBi-4" edge="1">
                    <mxGeometry relative="1" as="geometry">
                        <mxPoint x="363.5" y="1060" as="sourcePoint"/>
                        <mxPoint x="443.5" y="1060" as="targetPoint"/>
                    </mxGeometry>
                </mxCell>
                <mxCell id="ccYXBUsSf59Rllel3PBi-8" value="1" style="edgeLabel;html=1;align=center;verticalAlign=middle;resizable=0;points=[];" parent="1" connectable="0" vertex="1">
                    <mxGeometry x="532" y="1070.0044827586205" as="geometry">
                        <mxPoint x="-72" y="8" as="offset"/>
                    </mxGeometry>
                </mxCell>
                <mxCell id="2" value="&lt;p style=&quot;margin:0px;margin-top:4px;text-align:center;&quot;&gt;&lt;b&gt;Status&lt;/b&gt;&lt;/p&gt;&lt;hr size=&quot;1&quot;&gt;&lt;p style=&quot;margin:0px;margin-left:4px;&quot;&gt;&lt;span style=&quot;background-color: initial;&quot;&gt;+ name : String&lt;/span&gt;&lt;/p&gt;&lt;p style=&quot;margin:0px;margin-left:4px;&quot;&gt;&amp;nbsp;&lt;/p&gt;&lt;hr size=&quot;1&quot;&gt;&lt;p style=&quot;margin:0px;margin-left:4px;&quot;&gt;+ method(): Type&lt;/p&gt;" style="verticalAlign=top;align=left;overflow=fill;fontSize=12;fontFamily=Helvetica;html=1;" vertex="1" parent="1">
                    <mxGeometry x="1100" y="63" width="160" height="100" as="geometry"/>
                </mxCell>
                <mxCell id="4" style="edgeStyle=orthogonalEdgeStyle;rounded=0;orthogonalLoop=1;jettySize=auto;html=1;endArrow=none;endFill=0;exitX=1.004;exitY=0.109;exitDx=0;exitDy=0;exitPerimeter=0;entryX=0;entryY=0.05;entryDx=0;entryDy=0;entryPerimeter=0;" edge="1" parent="1" source="U3Fh0JSpAQ_HMKzynY-E-11" target="U3Fh0JSpAQ_HMKzynY-E-6">
                    <mxGeometry relative="1" as="geometry">
                        <Array as="points">
                            <mxPoint x="791" y="510"/>
                            <mxPoint x="1290" y="510"/>
                        </Array>
                        <mxPoint x="800" y="540.0000000000002" as="sourcePoint"/>
                        <mxPoint x="670" y="180" as="targetPoint"/>
                    </mxGeometry>
                </mxCell>
                <mxCell id="5" value="0...*" style="edgeLabel;html=1;align=center;verticalAlign=middle;resizable=0;points=[];" connectable="0" vertex="1" parent="4">
                    <mxGeometry x="-0.9328" y="1" relative="1" as="geometry">
                        <mxPoint x="20" y="-11" as="offset"/>
                    </mxGeometry>
                </mxCell>
                <mxCell id="6" value="1" style="edgeLabel;html=1;align=center;verticalAlign=middle;resizable=0;points=[];" connectable="0" vertex="1" parent="4">
                    <mxGeometry x="0.9432" relative="1" as="geometry">
                        <mxPoint x="-10" y="-3" as="offset"/>
                    </mxGeometry>
                </mxCell>
                <mxCell id="7" style="edgeStyle=orthogonalEdgeStyle;rounded=0;orthogonalLoop=1;jettySize=auto;html=1;endArrow=none;endFill=0;exitX=1;exitY=0.25;exitDx=0;exitDy=0;entryX=-0.005;entryY=0.675;entryDx=0;entryDy=0;entryPerimeter=0;" edge="1" parent="1" source="wcK2_SsXAU88zGsK9JyU-15" target="2">
                    <mxGeometry relative="1" as="geometry">
                        <Array as="points">
                            <mxPoint x="970" y="130"/>
                            <mxPoint x="1094" y="130"/>
                            <mxPoint x="1094" y="128"/>
                            <mxPoint x="1099" y="128"/>
                        </Array>
                        <mxPoint x="559.9999999999999" y="233.52999999999975" as="sourcePoint"/>
                        <mxPoint x="1059.3600000000001" y="210" as="targetPoint"/>
                    </mxGeometry>
                </mxCell>
                <mxCell id="8" value="0...*" style="edgeLabel;html=1;align=center;verticalAlign=middle;resizable=0;points=[];" connectable="0" vertex="1" parent="7">
                    <mxGeometry x="-0.9328" y="1" relative="1" as="geometry">
                        <mxPoint x="19" y="4" as="offset"/>
                    </mxGeometry>
                </mxCell>
                <mxCell id="9" value="1" style="edgeLabel;html=1;align=center;verticalAlign=middle;resizable=0;points=[];" connectable="0" vertex="1" parent="7">
                    <mxGeometry x="0.9432" relative="1" as="geometry">
                        <mxPoint x="-10" y="-3" as="offset"/>
                    </mxGeometry>
                </mxCell>
            </root>
        </mxGraphModel>
    </diagram>
    <diagram id="unrzabQcZFriMCC7OyJM" name="Diagramme de cas d'utilisation">
        <mxGraphModel dx="1710" dy="416" grid="1" gridSize="10" guides="1" tooltips="1" connect="1" arrows="1" fold="1" page="0" pageScale="1" pageWidth="827" pageHeight="1169" background="none" math="0" shadow="0">
            <root>
                <mxCell id="0"/>
                <mxCell id="1" parent="0"/>
                <UserObject label="" lucidchartObjectId="gKhOu9pnk8Ob" id="j4Bny53Nqc3UgjpTRana-2">
                    <mxCell style="html=1;overflow=block;blockSpacing=1;whiteSpace=wrap;fontSize=13;align=center;spacing=0;fillColor=#ffffff;strokeWidth=1.5;strokeColor=none;" parent="1" vertex="1">
                        <mxGeometry x="2765" y="1296" width="180" height="45" as="geometry"/>
                    </mxCell>
                </UserObject>
                <UserObject label="" lucidchartObjectId="gKhOGDX6BmYb" id="j4Bny53Nqc3UgjpTRana-3">
                    <mxCell style="html=1;overflow=block;blockSpacing=1;whiteSpace=wrap;container=0;pointerEvents=0;collapsible=0;recursiveResize=0;fontSize=13;align=center;spacing=0;strokeOpacity=100;fillOpacity=100;fillColor=none;strokeWidth=1.5;movable=1;resizable=1;rotatable=1;deletable=1;editable=1;locked=0;connectable=1;" parent="1" vertex="1">
                        <mxGeometry x="770" y="921" width="1395" height="1280" as="geometry"/>
                    </mxCell>
                </UserObject>
                <UserObject label="Client" lucidchartObjectId="gKhOu-AiaodL" id="j4Bny53Nqc3UgjpTRana-18">
                    <mxCell style="html=1;overflow=block;blockSpacing=1;shape=umlActor;labelPosition=center;verticalLabelPosition=bottom;verticalAlign=top;whiteSpace=nowrap;fontSize=13;align=center;spacing=0;strokeOpacity=100;fillOpacity=100;fillColor=none;strokeWidth=1.5;" parent="1" vertex="1">
                        <mxGeometry x="615" y="1355" width="60" height="120" as="geometry"/>
                    </mxCell>
                </UserObject>
                <UserObject label="Botaniste" lucidchartObjectId="gKhOP7h5WBCP" id="j4Bny53Nqc3UgjpTRana-19">
                    <mxCell style="html=1;overflow=block;blockSpacing=1;shape=umlActor;labelPosition=center;verticalLabelPosition=bottom;verticalAlign=top;whiteSpace=nowrap;fontSize=13;align=center;spacing=0;strokeOpacity=100;fillOpacity=100;fillColor=none;strokeWidth=1.5;" parent="1" vertex="1">
                        <mxGeometry x="540" y="1853" width="60" height="127" as="geometry"/>
                    </mxCell>
                </UserObject>
                <UserObject label="Administrateur" lucidchartObjectId="gKhOfSoPYHjI" id="j4Bny53Nqc3UgjpTRana-20">
                    <mxCell style="html=1;overflow=block;blockSpacing=1;shape=umlActor;labelPosition=center;verticalLabelPosition=bottom;verticalAlign=top;whiteSpace=nowrap;fontSize=13;align=center;spacing=0;strokeOpacity=100;fillOpacity=100;fillColor=none;strokeWidth=1.5;" parent="1" vertex="1">
                        <mxGeometry x="2235" y="1865.5" width="55" height="110" as="geometry"/>
                    </mxCell>
                </UserObject>
                <UserObject label="" lucidchartObjectId="gKhOqiJnqOq_" id="j4Bny53Nqc3UgjpTRana-28">
                    <mxCell style="html=1;jettySize=18;whiteSpace=wrap;fontSize=13;strokeOpacity=100;strokeWidth=0.8;rounded=1;arcSize=24;edgeStyle=orthogonalEdgeStyle;startArrow=none;endArrow=none;exitX=1.006;exitY=0.5;exitPerimeter=0;fillColor=none;" parent="1" source="j4Bny53Nqc3UgjpTRana-9" target="j4Bny53Nqc3UgjpTRana-20" edge="1">
                        <mxGeometry width="100" height="100" relative="1" as="geometry">
                            <Array as="points"/>
                        </mxGeometry>
                    </mxCell>
                </UserObject>
                <UserObject label="" lucidchartObjectId="gKhOn2uK6emS" id="j4Bny53Nqc3UgjpTRana-29">
                    <mxCell style="html=1;jettySize=18;whiteSpace=wrap;fontSize=13;strokeOpacity=100;strokeWidth=0.8;rounded=1;arcSize=24;edgeStyle=orthogonalEdgeStyle;startArrow=none;endArrow=none;exitX=1.006;exitY=0.5;exitPerimeter=0;fillColor=none;" parent="1" source="j4Bny53Nqc3UgjpTRana-27" target="j4Bny53Nqc3UgjpTRana-20" edge="1">
                        <mxGeometry width="100" height="100" relative="1" as="geometry">
                            <Array as="points">
                                <mxPoint x="2111" y="1921"/>
                            </Array>
                        </mxGeometry>
                    </mxCell>
                </UserObject>
                <UserObject label="Visiteur" lucidchartObjectId="gKhOcwnyrVPB" id="j4Bny53Nqc3UgjpTRana-31">
                    <mxCell style="html=1;overflow=block;blockSpacing=1;shape=umlActor;labelPosition=center;verticalLabelPosition=bottom;verticalAlign=top;whiteSpace=nowrap;fontSize=13;align=center;spacing=0;strokeOpacity=100;fillOpacity=100;fillColor=none;strokeWidth=1.5;" parent="1" vertex="1">
                        <mxGeometry x="630" y="1170" width="60" height="120" as="geometry"/>
                    </mxCell>
                </UserObject>
                <UserObject label="" lucidchartObjectId="gKhOaRxH9AZL" id="j4Bny53Nqc3UgjpTRana-32">
                    <mxCell style="html=1;jettySize=18;whiteSpace=wrap;fontSize=13;strokeColor=#333333;strokeOpacity=100;strokeWidth=0.8;rounded=1;arcSize=24;edgeStyle=orthogonalEdgeStyle;startArrow=none;endArrow=block;endFill=1;entryX=0;entryY=0.5;entryPerimeter=0;" parent="1" source="j4Bny53Nqc3UgjpTRana-18" target="j4Bny53Nqc3UgjpTRana-31" edge="1">
                        <mxGeometry width="100" height="100" relative="1" as="geometry">
                            <Array as="points">
                                <mxPoint x="570" y="1420"/>
                                <mxPoint x="570" y="1230"/>
                            </Array>
                        </mxGeometry>
                    </mxCell>
                </UserObject>
                <UserObject label="" lucidchartObjectId="gKhOkL3iKPd0" id="j4Bny53Nqc3UgjpTRana-33">
                    <mxCell style="html=1;jettySize=18;whiteSpace=wrap;fontSize=13;strokeColor=#333333;strokeOpacity=100;strokeWidth=0.8;rounded=1;arcSize=24;edgeStyle=orthogonalEdgeStyle;startArrow=none;endArrow=none;entryX=-0.006;entryY=0.5;entryPerimeter=0;" parent="1" source="j4Bny53Nqc3UgjpTRana-31" target="j4Bny53Nqc3UgjpTRana-21" edge="1">
                        <mxGeometry width="100" height="100" relative="1" as="geometry">
                            <Array as="points"/>
                        </mxGeometry>
                    </mxCell>
                </UserObject>
                <UserObject label="" lucidchartObjectId="gKhOXC6uII6b" id="j4Bny53Nqc3UgjpTRana-34">
                    <mxCell style="html=1;jettySize=18;whiteSpace=wrap;fontSize=13;strokeColor=#333333;strokeOpacity=100;strokeWidth=0.8;rounded=1;arcSize=24;edgeStyle=orthogonalEdgeStyle;startArrow=none;endArrow=none;entryX=0.5;entryY=1;entryDx=0;entryDy=0;" parent="1" source="j4Bny53Nqc3UgjpTRana-31" target="j4Bny53Nqc3UgjpTRana-30" edge="1">
                        <mxGeometry width="100" height="100" relative="1" as="geometry">
                            <Array as="points">
                                <mxPoint x="1410" y="1230"/>
                            </Array>
                        </mxGeometry>
                    </mxCell>
                </UserObject>
                <UserObject label="" lucidchartObjectId="gKhOEcXFC-xn" id="j4Bny53Nqc3UgjpTRana-36">
                    <mxCell style="html=1;jettySize=18;whiteSpace=wrap;fontSize=13;strokeColor=#333333;strokeOpacity=100;strokeWidth=0.8;rounded=1;arcSize=24;edgeStyle=orthogonalEdgeStyle;startArrow=none;endArrow=none;entryX=-0.006;entryY=0.5;entryPerimeter=0;" parent="1" source="j4Bny53Nqc3UgjpTRana-19" target="j4Bny53Nqc3UgjpTRana-25" edge="1">
                        <mxGeometry width="100" height="100" relative="1" as="geometry">
                            <Array as="points">
                                <mxPoint x="800" y="1921"/>
                                <mxPoint x="800" y="1799"/>
                            </Array>
                        </mxGeometry>
                    </mxCell>
                </UserObject>
                <UserObject label="" lucidchartObjectId="gKhOzjPgn9YY" id="j4Bny53Nqc3UgjpTRana-37">
                    <mxCell style="html=1;jettySize=18;whiteSpace=wrap;fontSize=13;strokeOpacity=100;strokeWidth=0.8;rounded=1;arcSize=24;edgeStyle=orthogonalEdgeStyle;startArrow=none;endArrow=none;exitX=1;exitY=0.5;exitPerimeter=0;fillColor=none;" parent="1" source="j4Bny53Nqc3UgjpTRana-31" target="j4Bny53Nqc3UgjpTRana-26" edge="1">
                        <mxGeometry width="100" height="100" relative="1" as="geometry">
                            <Array as="points">
                                <mxPoint x="1620" y="1230"/>
                            </Array>
                        </mxGeometry>
                    </mxCell>
                </UserObject>
                <UserObject label="" lucidchartObjectId="-NhOjeM7gTps" id="j4Bny53Nqc3UgjpTRana-40">
                    <mxCell style="html=1;jettySize=18;whiteSpace=wrap;fontSize=13;strokeOpacity=100;strokeWidth=0.8;rounded=1;arcSize=24;edgeStyle=orthogonalEdgeStyle;startArrow=none;endArrow=block;endFill=1;exitX=0.5;exitY=-0.006;exitPerimeter=0;entryX=0;entryY=0.5;entryPerimeter=0;fillColor=none;" parent="1" source="j4Bny53Nqc3UgjpTRana-19" target="j4Bny53Nqc3UgjpTRana-31" edge="1">
                        <mxGeometry width="100" height="100" relative="1" as="geometry">
                            <Array as="points"/>
                        </mxGeometry>
                    </mxCell>
                </UserObject>
                <UserObject label="" lucidchartObjectId="UPhO6AxFN8nv" id="j4Bny53Nqc3UgjpTRana-43">
                    <mxCell style="html=1;jettySize=18;whiteSpace=wrap;fontSize=13;strokeOpacity=100;strokeWidth=0.8;rounded=1;arcSize=24;edgeStyle=orthogonalEdgeStyle;startArrow=none;endArrow=none;entryX=-0.006;entryY=0.5;entryPerimeter=0;fillColor=none;" parent="1" source="j4Bny53Nqc3UgjpTRana-19" target="j4Bny53Nqc3UgjpTRana-6" edge="1">
                        <mxGeometry width="100" height="100" relative="1" as="geometry">
                            <Array as="points">
                                <mxPoint x="800" y="1921"/>
                                <mxPoint x="800" y="2115"/>
                            </Array>
                        </mxGeometry>
                    </mxCell>
                </UserObject>
                <UserObject label="Serveur mail&#10;&amp;lt;&amp;lt;System&amp;gt;&amp;gt;" lucidchartObjectId="M8hOkrBOWUQn" id="j4Bny53Nqc3UgjpTRana-49">
                    <mxCell style="html=1;overflow=block;blockSpacing=1;shape=umlActor;labelPosition=center;verticalLabelPosition=bottom;verticalAlign=top;whiteSpace=nowrap;fontSize=13;align=center;spacing=0;strokeOpacity=100;fillOpacity=100;fillColor=none;strokeWidth=1.5;" parent="1" vertex="1">
                        <mxGeometry x="2235" y="1280" width="55" height="110" as="geometry"/>
                    </mxCell>
                </UserObject>
                <UserObject label="" lucidchartObjectId="N_hO-MWpPihL" id="j4Bny53Nqc3UgjpTRana-53">
                    <mxCell style="html=1;jettySize=18;whiteSpace=wrap;fontSize=13;strokeOpacity=100;strokeWidth=0.8;rounded=1;arcSize=24;edgeStyle=orthogonalEdgeStyle;startArrow=none;endArrow=none;entryX=1.006;entryY=0.5;entryPerimeter=0;fillColor=none;" parent="1" source="j4Bny53Nqc3UgjpTRana-49" target="j4Bny53Nqc3UgjpTRana-50" edge="1">
                        <mxGeometry width="100" height="100" relative="1" as="geometry">
                            <Array as="points">
                                <mxPoint x="2130" y="1340"/>
                                <mxPoint x="2130" y="1085"/>
                            </Array>
                        </mxGeometry>
                    </mxCell>
                </UserObject>
                <UserObject label="" lucidchartObjectId="xFiOth19pv47" id="j4Bny53Nqc3UgjpTRana-56">
                    <mxCell style="html=1;jettySize=18;whiteSpace=wrap;fontSize=13;strokeOpacity=100;strokeWidth=0.8;rounded=1;arcSize=24;edgeStyle=orthogonalEdgeStyle;startArrow=none;endArrow=none;fillColor=none;" parent="1" source="j4Bny53Nqc3UgjpTRana-31" target="j4Bny53Nqc3UgjpTRana-23" edge="1">
                        <mxGeometry width="100" height="100" relative="1" as="geometry">
                            <Array as="points">
                                <mxPoint x="1410" y="1230"/>
                                <mxPoint x="1410" y="1305"/>
                                <mxPoint x="1530" y="1305"/>
                            </Array>
                        </mxGeometry>
                    </mxCell>
                </UserObject>
                <UserObject label="" lucidchartObjectId="WSiO19zAIk1v" id="j4Bny53Nqc3UgjpTRana-66">
                    <mxCell style="html=1;jettySize=18;whiteSpace=wrap;fontSize=13;strokeOpacity=100;strokeWidth=0.8;rounded=1;arcSize=24;edgeStyle=orthogonalEdgeStyle;startArrow=none;endArrow=none;entryX=0.5;entryY=0;entryDx=0;entryDy=0;fillColor=none;" parent="1" source="j4Bny53Nqc3UgjpTRana-49" target="j4Bny53Nqc3UgjpTRana-63" edge="1">
                        <mxGeometry width="100" height="100" relative="1" as="geometry">
                            <Array as="points">
                                <mxPoint x="1990" y="1340"/>
                            </Array>
                        </mxGeometry>
                    </mxCell>
                </UserObject>
                <UserObject label="" lucidchartObjectId="Y6uPnxh6_YVl" id="j4Bny53Nqc3UgjpTRana-67">
                    <mxCell style="html=1;jettySize=18;whiteSpace=wrap;fontSize=13;strokeOpacity=100;strokeWidth=0.8;rounded=1;arcSize=24;edgeStyle=orthogonalEdgeStyle;startArrow=none;endArrow=none;fillColor=none;" parent="1" source="j4Bny53Nqc3UgjpTRana-18" target="j4Bny53Nqc3UgjpTRana-24" edge="1">
                        <mxGeometry width="100" height="100" relative="1" as="geometry">
                            <Array as="points">
                                <mxPoint x="800" y="1420"/>
                                <mxPoint x="800" y="1305"/>
                            </Array>
                            <mxPoint x="910" y="1305" as="targetPoint"/>
                        </mxGeometry>
                    </mxCell>
                </UserObject>
                <UserObject label="" lucidchartObjectId="HDoThxs2cL3G" id="j4Bny53Nqc3UgjpTRana-79">
                    <mxCell style="html=1;jettySize=18;whiteSpace=wrap;fontSize=13;strokeOpacity=100;strokeWidth=0.8;rounded=1;arcSize=24;edgeStyle=orthogonalEdgeStyle;startArrow=none;endArrow=none;fillColor=none;" parent="1" source="j4Bny53Nqc3UgjpTRana-5" target="j4Bny53Nqc3UgjpTRana-19" edge="1">
                        <mxGeometry width="100" height="100" relative="1" as="geometry">
                            <Array as="points">
                                <mxPoint x="780" y="1921"/>
                                <mxPoint x="780" y="1921"/>
                            </Array>
                        </mxGeometry>
                    </mxCell>
                </UserObject>
                <UserObject label="" lucidchartObjectId="wEoTKA2rk6TV" id="j4Bny53Nqc3UgjpTRana-80">
                    <mxCell style="html=1;jettySize=18;whiteSpace=wrap;fontSize=13;strokeOpacity=100;strokeWidth=0.8;rounded=1;arcSize=24;edgeStyle=orthogonalEdgeStyle;startArrow=none;endArrow=none;exitX=-0.006;exitY=0.5;exitPerimeter=0;fillColor=none;" parent="1" source="j4Bny53Nqc3UgjpTRana-68" target="j4Bny53Nqc3UgjpTRana-18" edge="1">
                        <mxGeometry width="100" height="100" relative="1" as="geometry">
                            <Array as="points">
                                <mxPoint x="800" y="1645"/>
                                <mxPoint x="800" y="1420"/>
                            </Array>
                        </mxGeometry>
                    </mxCell>
                </UserObject>
                <UserObject label="" lucidchartObjectId="xFiOth19pv47" id="j4Bny53Nqc3UgjpTRana-81">
                    <mxCell style="html=1;jettySize=18;whiteSpace=wrap;fontSize=13;strokeOpacity=100;strokeWidth=0.8;rounded=1;arcSize=24;edgeStyle=orthogonalEdgeStyle;startArrow=none;endArrow=none;fillColor=none;" parent="1" source="j4Bny53Nqc3UgjpTRana-31" target="j4Bny53Nqc3UgjpTRana-4" edge="1">
                        <mxGeometry width="100" height="100" relative="1" as="geometry">
                            <Array as="points">
                                <mxPoint x="860" y="1230"/>
                            </Array>
                            <mxPoint x="655.7800000000002" y="1240" as="sourcePoint"/>
                            <mxPoint x="1515.5199999999995" y="1558.15" as="targetPoint"/>
                        </mxGeometry>
                    </mxCell>
                </UserObject>
                <UserObject label="" lucidchartObjectId="wEoTKA2rk6TV" id="foj-8QFy9QnmpwE-tMUR-5">
                    <mxCell style="html=1;jettySize=18;whiteSpace=wrap;fontSize=13;strokeOpacity=100;strokeWidth=0.8;rounded=1;arcSize=24;edgeStyle=orthogonalEdgeStyle;startArrow=none;endArrow=none;fillColor=none;" parent="1" source="j4Bny53Nqc3UgjpTRana-22" target="j4Bny53Nqc3UgjpTRana-18" edge="1">
                        <mxGeometry width="100" height="100" relative="1" as="geometry">
                            <Array as="points">
                                <mxPoint x="1370" y="1250"/>
                                <mxPoint x="800" y="1250"/>
                                <mxPoint x="800" y="1420"/>
                            </Array>
                            <mxPoint x="919" y="1475" as="sourcePoint"/>
                            <mxPoint x="656" y="1600" as="targetPoint"/>
                        </mxGeometry>
                    </mxCell>
                </UserObject>
                <UserObject label="GÃ©rer son espace utilisateur" lucidchartObjectId="gKhOzTha_Y9X" id="j4Bny53Nqc3UgjpTRana-4">
                    <mxCell style="html=1;overflow=block;blockSpacing=1;whiteSpace=wrap;ellipse;fontSize=13;spacing=3.8;strokeOpacity=100;fillOpacity=100;fillColor=none;strokeWidth=1.5;" parent="1" vertex="1">
                        <mxGeometry x="800" y="1040" width="120" height="90" as="geometry"/>
                    </mxCell>
                </UserObject>
                <UserObject label="Explorer les demandes" lucidchartObjectId="qmoTM29gUOR-" id="j4Bny53Nqc3UgjpTRana-5">
                    <mxCell style="html=1;overflow=block;blockSpacing=1;whiteSpace=wrap;ellipse;fontSize=13;spacing=3.8;strokeOpacity=100;fillOpacity=100;fillColor=none;strokeWidth=1.5;" parent="1" vertex="1">
                        <mxGeometry x="1310" y="1875.5" width="120" height="90" as="geometry"/>
                    </mxCell>
                </UserObject>
                <UserObject label="Ajouter justificatif" lucidchartObjectId="gKhOh3372qru" id="j4Bny53Nqc3UgjpTRana-6">
                    <mxCell style="html=1;overflow=block;blockSpacing=1;whiteSpace=wrap;ellipse;fontSize=13;spacing=3.8;strokeOpacity=100;fillOpacity=100;fillColor=none;strokeWidth=1.5;" parent="1" vertex="1">
                        <mxGeometry x="1690" y="2070" width="120" height="90" as="geometry"/>
                    </mxCell>
                </UserObject>
                <UserObject label="Prendre rendez-vous" lucidchartObjectId="qmoTM29gUOR-" id="j4Bny53Nqc3UgjpTRana-7">
                    <mxCell style="html=1;overflow=block;blockSpacing=1;whiteSpace=wrap;ellipse;fontSize=13;spacing=3.8;strokeOpacity=100;fillOpacity=100;fillColor=none;strokeWidth=1.5;" parent="1" vertex="1">
                        <mxGeometry x="1220" y="1990" width="120" height="90" as="geometry"/>
                    </mxCell>
                </UserObject>
                <UserObject label="" lucidchartObjectId="TjoT5E3iF57i" id="j4Bny53Nqc3UgjpTRana-8">
                    <mxCell style="html=1;jettySize=18;whiteSpace=wrap;fontSize=13;strokeOpacity=100;strokeWidth=0.8;rounded=1;arcSize=24;edgeStyle=orthogonalEdgeStyle;startArrow=none;endArrow=block;endFill=1;fillColor=none;" parent="1" source="j4Bny53Nqc3UgjpTRana-7" target="j4Bny53Nqc3UgjpTRana-5" edge="1">
                        <mxGeometry width="100" height="100" relative="1" as="geometry">
                            <Array as="points">
                                <mxPoint x="1370" y="2020"/>
                            </Array>
                            <mxPoint x="1615" y="1315" as="sourcePoint"/>
                            <mxPoint x="1420" y="2020" as="targetPoint"/>
                        </mxGeometry>
                    </mxCell>
                </UserObject>
                <UserObject label="VÃ©rifier piÃ¨ces justificatives" lucidchartObjectId="gKhOuwIMfBFl" id="j4Bny53Nqc3UgjpTRana-9">
                    <mxCell style="html=1;overflow=block;blockSpacing=1;whiteSpace=wrap;ellipse;fontSize=13;spacing=3.8;strokeOpacity=100;fillOpacity=100;fillColor=none;strokeWidth=1.5;" parent="1" vertex="1">
                        <mxGeometry x="1930" y="1875.5" width="120" height="90" as="geometry"/>
                    </mxCell>
                </UserObject>
                <UserObject label="" lucidchartObjectId="J1hO5bD2.ekL" id="j4Bny53Nqc3UgjpTRana-10">
                    <mxCell style="html=1;jettySize=18;whiteSpace=wrap;fontSize=13;strokeOpacity=100;dashed=1;fixDash=1;dashPattern=3 8;strokeWidth=0.8;rounded=1;arcSize=24;edgeStyle=orthogonalEdgeStyle;startArrow=none;endArrow=block;endFill=1;exitX=-0.006;exitY=0.5;exitPerimeter=0;entryX=1.006;entryY=0.5;entryPerimeter=0;fillColor=none;" parent="1" source="j4Bny53Nqc3UgjpTRana-9" target="j4Bny53Nqc3UgjpTRana-6" edge="1">
                        <mxGeometry width="100" height="100" relative="1" as="geometry">
                            <Array as="points"/>
                        </mxGeometry>
                    </mxCell>
                </UserObject>
                <mxCell id="j4Bny53Nqc3UgjpTRana-11" value="&amp;lt;&amp;lt;include&amp;gt;&amp;gt;" style="text;html=1;resizable=0;labelBackgroundColor=default;align=center;verticalAlign=middle;fontColor=#FAFAFA;fontSize=13;" parent="j4Bny53Nqc3UgjpTRana-10" vertex="1">
                    <mxGeometry x="-0.16305202863121004" relative="1" as="geometry"/>
                </mxCell>
                <UserObject label="AccÃ©der Ã  son historique" lucidchartObjectId="qmoTM29gUOR-" id="j4Bny53Nqc3UgjpTRana-12">
                    <mxCell style="html=1;overflow=block;blockSpacing=1;whiteSpace=wrap;ellipse;fontSize=13;spacing=3.8;strokeOpacity=100;fillOpacity=100;fillColor=none;strokeWidth=1.5;" parent="1" vertex="1">
                        <mxGeometry x="1400" y="1990" width="120" height="90" as="geometry"/>
                    </mxCell>
                </UserObject>
                <UserObject label="" lucidchartObjectId="TjoT5E3iF57i" id="j4Bny53Nqc3UgjpTRana-13">
                    <mxCell style="html=1;jettySize=18;whiteSpace=wrap;fontSize=13;strokeOpacity=100;strokeWidth=0.8;rounded=1;arcSize=24;edgeStyle=orthogonalEdgeStyle;startArrow=none;endArrow=block;endFill=1;fillColor=none;" parent="1" source="j4Bny53Nqc3UgjpTRana-12" target="j4Bny53Nqc3UgjpTRana-5" edge="1">
                        <mxGeometry width="100" height="100" relative="1" as="geometry">
                            <Array as="points">
                                <mxPoint x="1370" y="2020"/>
                            </Array>
                            <mxPoint x="1530" y="2100" as="sourcePoint"/>
                            <mxPoint x="1418.4997625826136" y="2030" as="targetPoint"/>
                        </mxGeometry>
                    </mxCell>
                </UserObject>
                <UserObject label="Ajouter des plantes" lucidchartObjectId="gKhO0i5Lb0RQ" id="j4Bny53Nqc3UgjpTRana-24">
                    <mxCell style="html=1;overflow=block;blockSpacing=1;whiteSpace=wrap;ellipse;fontSize=13;spacing=3.8;strokeOpacity=100;fillOpacity=100;fillColor=none;strokeWidth=1.5;" parent="1" vertex="1">
                        <mxGeometry x="890" y="1260" width="120" height="90" as="geometry"/>
                    </mxCell>
                </UserObject>
                <UserObject label="CrÃ©er une demande de conseil en ligne" lucidchartObjectId="uioTm0ih_5xU" id="j4Bny53Nqc3UgjpTRana-68">
                    <mxCell style="html=1;overflow=block;blockSpacing=1;whiteSpace=wrap;ellipse;fontSize=13;spacing=3.8;strokeOpacity=100;fillOpacity=100;fillColor=none;strokeWidth=1.5;" parent="1" vertex="1">
                        <mxGeometry x="890" y="1600" width="120" height="90" as="geometry"/>
                    </mxCell>
                </UserObject>
                <UserObject label="" lucidchartObjectId="VioTqBoHd~Mr" id="j4Bny53Nqc3UgjpTRana-69">
                    <mxCell style="html=1;jettySize=18;whiteSpace=wrap;fontSize=13;strokeOpacity=100;dashed=1;fixDash=1;dashPattern=3 8;strokeWidth=0.8;rounded=1;arcSize=24;edgeStyle=orthogonalEdgeStyle;startArrow=none;endArrow=block;endFill=1;fillColor=none;" parent="1" source="j4Bny53Nqc3UgjpTRana-68" target="j4Bny53Nqc3UgjpTRana-24" edge="1">
                        <mxGeometry width="100" height="100" relative="1" as="geometry">
                            <Array as="points">
                                <mxPoint x="950" y="1480"/>
                                <mxPoint x="950" y="1480"/>
                            </Array>
                            <mxPoint x="1080.04" y="1424.9999999999998" as="sourcePoint"/>
                            <mxPoint x="1090.04" y="1355.72" as="targetPoint"/>
                        </mxGeometry>
                    </mxCell>
                </UserObject>
                <mxCell id="j4Bny53Nqc3UgjpTRana-70" value="&amp;lt;&amp;lt;include&amp;gt;&amp;gt;" style="text;html=1;resizable=0;labelBackgroundColor=default;align=center;verticalAlign=middle;fontColor=#E0E0E0;fontSize=13;" parent="j4Bny53Nqc3UgjpTRana-69" vertex="1">
                    <mxGeometry x="-0.37793318184074387" relative="1" as="geometry">
                        <mxPoint y="-48" as="offset"/>
                    </mxGeometry>
                </mxCell>
                <UserObject label="Creer une demande de rendez-vous " lucidchartObjectId="gKhO8AEypUkO" id="j4Bny53Nqc3UgjpTRana-22">
                    <mxCell style="html=1;overflow=block;blockSpacing=1;whiteSpace=wrap;ellipse;fontSize=13;spacing=3.8;strokeOpacity=100;fillOpacity=100;fillColor=none;strokeWidth=1.5;" parent="1" vertex="1">
                        <mxGeometry x="1310" y="1370" width="120" height="90" as="geometry"/>
                    </mxCell>
                </UserObject>
                <UserObject label="" lucidchartObjectId="UmoTv5eSHaaD" id="j4Bny53Nqc3UgjpTRana-75">
                    <mxCell style="html=1;jettySize=18;whiteSpace=wrap;fontSize=13;strokeOpacity=100;dashed=1;fixDash=1;dashPattern=3 8;strokeWidth=0.8;rounded=1;arcSize=24;edgeStyle=orthogonalEdgeStyle;startArrow=none;endArrow=block;endFill=1;exitX=0.5;exitY=-0.008;exitPerimeter=0;entryX=0.5;entryY=1.008;entryPerimeter=0;fillColor=none;" parent="1" source="j4Bny53Nqc3UgjpTRana-5" target="j4Bny53Nqc3UgjpTRana-22" edge="1">
                        <mxGeometry width="100" height="100" relative="1" as="geometry">
                            <Array as="points"/>
                        </mxGeometry>
                    </mxCell>
                </UserObject>
                <mxCell id="j4Bny53Nqc3UgjpTRana-76" value="&amp;lt;&amp;lt;include&amp;gt;&amp;gt;" style="text;html=1;resizable=0;labelBackgroundColor=default;align=center;verticalAlign=middle;fontColor=#FCFCFC;fontSize=13;" parent="j4Bny53Nqc3UgjpTRana-75" vertex="1">
                    <mxGeometry x="-0.37793318184074387" relative="1" as="geometry">
                        <mxPoint y="-27" as="offset"/>
                    </mxGeometry>
                </mxCell>
                <UserObject label="" lucidchartObjectId="oIiOINZ41Wn4" id="j4Bny53Nqc3UgjpTRana-57">
                    <mxCell style="html=1;jettySize=18;whiteSpace=wrap;fontSize=13;strokeOpacity=100;dashed=1;fixDash=1;dashPattern=3 8;strokeWidth=0.8;rounded=1;arcSize=24;edgeStyle=orthogonalEdgeStyle;startArrow=none;endArrow=block;endFill=1;exitX=0;exitY=0;exitDx=0;exitDy=0;fillColor=none;" parent="1" source="j4Bny53Nqc3UgjpTRana-22" target="j4Bny53Nqc3UgjpTRana-24" edge="1">
                        <mxGeometry width="100" height="100" relative="1" as="geometry">
                            <Array as="points">
                                <mxPoint x="1330" y="1383"/>
                                <mxPoint x="1330" y="1305"/>
                            </Array>
                        </mxGeometry>
                    </mxCell>
                </UserObject>
                <mxCell id="j4Bny53Nqc3UgjpTRana-58" value="&amp;lt;&amp;lt;include&amp;gt;&amp;gt;" style="text;html=1;resizable=0;labelBackgroundColor=default;align=center;verticalAlign=middle;fontColor=#E0E0E0;fontSize=13;" parent="j4Bny53Nqc3UgjpTRana-57" vertex="1">
                    <mxGeometry x="-0.37793318184074387" relative="1" as="geometry"/>
                </mxCell>
                <UserObject label="Choisir en ligne" lucidchartObjectId="vjoTZL5YEYP9" id="j4Bny53Nqc3UgjpTRana-72">
                    <mxCell style="html=1;overflow=block;blockSpacing=1;whiteSpace=wrap;ellipse;fontSize=13;spacing=3.8;strokeOpacity=100;fillOpacity=100;fillColor=none;strokeWidth=1.5;" parent="1" vertex="1">
                        <mxGeometry x="1110" y="1330" width="120" height="90" as="geometry"/>
                    </mxCell>
                </UserObject>
                <UserObject label="" lucidchartObjectId="TjoT5E3iF57i" id="j4Bny53Nqc3UgjpTRana-73">
                    <mxCell style="html=1;jettySize=18;whiteSpace=wrap;fontSize=13;strokeOpacity=100;strokeWidth=0.8;rounded=1;arcSize=24;edgeStyle=orthogonalEdgeStyle;startArrow=none;endArrow=block;endFill=1;exitX=1.006;exitY=0.5;exitPerimeter=0;fillColor=none;" parent="1" source="j4Bny53Nqc3UgjpTRana-72" target="j4Bny53Nqc3UgjpTRana-22" edge="1">
                        <mxGeometry width="100" height="100" relative="1" as="geometry">
                            <Array as="points">
                                <mxPoint x="1250" y="1375"/>
                                <mxPoint x="1250" y="1415"/>
                            </Array>
                        </mxGeometry>
                    </mxCell>
                </UserObject>
                <UserObject label="Choisir Ã  domicile" lucidchartObjectId="vjoTSHHiT4I_" id="j4Bny53Nqc3UgjpTRana-71">
                    <mxCell style="html=1;overflow=block;blockSpacing=1;whiteSpace=wrap;ellipse;fontSize=13;spacing=3.8;strokeOpacity=100;fillOpacity=100;fillColor=none;strokeWidth=1.5;" parent="1" vertex="1">
                        <mxGeometry x="1190" y="1460" width="120" height="90" as="geometry"/>
                    </mxCell>
                </UserObject>
                <UserObject label="" lucidchartObjectId="lkoTxJUnp6nr" id="j4Bny53Nqc3UgjpTRana-74">
                    <mxCell style="html=1;jettySize=18;whiteSpace=wrap;fontSize=13;strokeOpacity=100;strokeWidth=0.8;rounded=1;arcSize=24;edgeStyle=orthogonalEdgeStyle;startArrow=none;endArrow=block;endFill=1;entryX=0;entryY=0.5;entryDx=0;entryDy=0;fillColor=none;" parent="1" source="j4Bny53Nqc3UgjpTRana-71" target="j4Bny53Nqc3UgjpTRana-22" edge="1">
                        <mxGeometry width="100" height="100" relative="1" as="geometry">
                            <Array as="points"/>
                        </mxGeometry>
                    </mxCell>
                </UserObject>
                <UserObject label="Envoyer le  mail de vÃ©rification" lucidchartObjectId="W-hOqGgNsrmI" id="j4Bny53Nqc3UgjpTRana-50">
                    <mxCell style="html=1;overflow=block;blockSpacing=1;whiteSpace=wrap;ellipse;fontSize=13;spacing=3.8;strokeOpacity=100;fillOpacity=100;fillColor=none;strokeWidth=1.5;" parent="1" vertex="1">
                        <mxGeometry x="1690" y="1040" width="120" height="90" as="geometry"/>
                    </mxCell>
                </UserObject>
                <UserObject label="Se connecter" lucidchartObjectId="gKhOzTha_Y9X" id="j4Bny53Nqc3UgjpTRana-30">
                    <mxCell style="html=1;overflow=block;blockSpacing=1;whiteSpace=wrap;ellipse;fontSize=13;spacing=3.8;strokeOpacity=100;fillOpacity=100;fillColor=none;strokeWidth=1.5;" parent="1" vertex="1">
                        <mxGeometry x="1350" y="1040" width="120" height="90" as="geometry"/>
                    </mxCell>
                </UserObject>
                <UserObject label="S'inscrire" lucidchartObjectId="gKhOTKAAX_ll" id="j4Bny53Nqc3UgjpTRana-21">
                    <mxCell style="html=1;overflow=block;blockSpacing=1;whiteSpace=wrap;ellipse;fontSize=13;spacing=3.8;strokeOpacity=100;fillOpacity=100;fillColor=none;strokeWidth=1.5;" parent="1" vertex="1">
                        <mxGeometry x="1690" y="1185" width="120" height="90" as="geometry"/>
                    </mxCell>
                </UserObject>
                <UserObject label="Accepter les CGU" lucidchartObjectId="55hOAT56FzsK" id="j4Bny53Nqc3UgjpTRana-46">
                    <mxCell style="html=1;overflow=block;blockSpacing=1;whiteSpace=wrap;ellipse;fontSize=13;spacing=3.8;strokeOpacity=100;fillOpacity=100;fillColor=none;strokeWidth=1.5;" parent="1" vertex="1">
                        <mxGeometry x="1930" y="1185" width="120" height="90" as="geometry"/>
                    </mxCell>
                </UserObject>
                <UserObject label="Envoyer le  mail de notification" lucidchartObjectId="tSiO45qGRzfP" id="j4Bny53Nqc3UgjpTRana-63">
                    <mxCell style="html=1;overflow=block;blockSpacing=1;whiteSpace=wrap;ellipse;fontSize=13;spacing=3.8;strokeOpacity=100;fillOpacity=100;fillColor=none;strokeWidth=1.5;" parent="1" vertex="1">
                        <mxGeometry x="1930" y="1390" width="120" height="90" as="geometry"/>
                    </mxCell>
                </UserObject>
                <UserObject label="" lucidchartObjectId="TyiOg081VAjn" id="j4Bny53Nqc3UgjpTRana-54">
                    <mxCell style="html=1;jettySize=18;whiteSpace=wrap;fontSize=13;strokeOpacity=100;dashed=1;fixDash=1;dashPattern=3 8;strokeWidth=0.8;rounded=1;arcSize=24;edgeStyle=orthogonalEdgeStyle;startArrow=none;endArrow=block;endFill=1;entryX=1.006;entryY=0.5;entryPerimeter=0;fillColor=none;" parent="1" source="j4Bny53Nqc3UgjpTRana-50" target="j4Bny53Nqc3UgjpTRana-30" edge="1">
                        <mxGeometry width="100" height="100" relative="1" as="geometry">
                            <Array as="points"/>
                        </mxGeometry>
                    </mxCell>
                </UserObject>
                <mxCell id="j4Bny53Nqc3UgjpTRana-55" value="&amp;lt;&amp;lt;include&amp;gt;&amp;gt;" style="text;html=1;resizable=0;labelBackgroundColor=default;align=center;verticalAlign=middle;fontColor=#FFFFFF;fontSize=13;" parent="j4Bny53Nqc3UgjpTRana-54" vertex="1">
                    <mxGeometry x="-0.17679820441364003" relative="1" as="geometry"/>
                </mxCell>
                <UserObject label="" lucidchartObjectId="TyiOg081VAjn" id="foj-8QFy9QnmpwE-tMUR-1">
                    <mxCell style="html=1;jettySize=18;whiteSpace=wrap;fontSize=13;strokeOpacity=100;dashed=1;fixDash=1;dashPattern=3 8;strokeWidth=0.8;rounded=1;arcSize=24;edgeStyle=orthogonalEdgeStyle;startArrow=none;endArrow=block;endFill=1;fillColor=none;" parent="1" source="j4Bny53Nqc3UgjpTRana-4" target="j4Bny53Nqc3UgjpTRana-30" edge="1">
                        <mxGeometry width="100" height="100" relative="1" as="geometry">
                            <Array as="points"/>
                            <mxPoint x="1274" y="1159" as="sourcePoint"/>
                            <mxPoint x="1080" y="1070" as="targetPoint"/>
                        </mxGeometry>
                    </mxCell>
                </UserObject>
                <mxCell id="foj-8QFy9QnmpwE-tMUR-2" value="&amp;lt;&amp;lt;include&amp;gt;&amp;gt;" style="text;html=1;resizable=0;labelBackgroundColor=default;align=center;verticalAlign=middle;fontColor=#FCFCFC;fontSize=13;" parent="foj-8QFy9QnmpwE-tMUR-1" vertex="1">
                    <mxGeometry x="-0.17679820441364003" relative="1" as="geometry"/>
                </mxCell>
                <UserObject label="" lucidchartObjectId="_-hOTZM5BbDT" id="j4Bny53Nqc3UgjpTRana-51">
                    <mxCell style="html=1;jettySize=18;whiteSpace=wrap;fontSize=13;strokeOpacity=100;dashed=1;fixDash=1;dashPattern=3 8;strokeWidth=0.8;rounded=1;arcSize=24;edgeStyle=orthogonalEdgeStyle;startArrow=none;endArrow=block;endFill=1;entryX=0.5;entryY=1;entryDx=0;entryDy=0;fillColor=none;" parent="1" source="j4Bny53Nqc3UgjpTRana-21" target="j4Bny53Nqc3UgjpTRana-50" edge="1">
                        <mxGeometry width="100" height="100" relative="1" as="geometry">
                            <Array as="points"/>
                        </mxGeometry>
                    </mxCell>
                </UserObject>
                <mxCell id="j4Bny53Nqc3UgjpTRana-52" value="&amp;lt;&amp;lt;include&amp;gt;&amp;gt;" style="text;html=1;resizable=0;labelBackgroundColor=default;align=center;verticalAlign=middle;fontColor=#FFFFFF;fontSize=13;" parent="j4Bny53Nqc3UgjpTRana-51" vertex="1">
                    <mxGeometry x="-0.17679820441364003" relative="1" as="geometry"/>
                </mxCell>
                <UserObject label="" lucidchartObjectId="zOhO6~MUcXBs" id="j4Bny53Nqc3UgjpTRana-41">
                    <mxCell style="html=1;jettySize=18;whiteSpace=wrap;fontSize=13;strokeOpacity=100;dashed=1;fixDash=1;dashPattern=3 8;strokeWidth=0.8;rounded=1;arcSize=24;edgeStyle=orthogonalEdgeStyle;startArrow=none;endArrow=block;endFill=1;exitX=0.5;exitY=1.008;exitPerimeter=0;entryX=0.5;entryY=-0.008;entryPerimeter=0;fillColor=none;" parent="1" source="j4Bny53Nqc3UgjpTRana-21" target="j4Bny53Nqc3UgjpTRana-6" edge="1">
                        <mxGeometry width="100" height="100" relative="1" as="geometry">
                            <Array as="points">
                                <mxPoint x="1750" y="2069"/>
                            </Array>
                        </mxGeometry>
                    </mxCell>
                </UserObject>
                <mxCell id="j4Bny53Nqc3UgjpTRana-42" value="&amp;lt;&amp;lt;include&amp;gt;&amp;gt;" style="text;html=1;resizable=0;labelBackgroundColor=default;align=center;verticalAlign=middle;fontColor=#F5F5F5;fontSize=13;fontStyle=0;labelBorderColor=none;" parent="j4Bny53Nqc3UgjpTRana-41" vertex="1">
                    <mxGeometry x="-0.37793318184074387" relative="1" as="geometry"/>
                </mxCell>
                <UserObject label="" lucidchartObjectId="b6hO.4ZUP0Qt" id="j4Bny53Nqc3UgjpTRana-47">
                    <mxCell style="html=1;jettySize=18;whiteSpace=wrap;fontSize=13;strokeOpacity=100;dashed=1;fixDash=1;dashPattern=3 8;strokeWidth=0.8;rounded=1;arcSize=24;edgeStyle=orthogonalEdgeStyle;startArrow=none;endArrow=block;endFill=1;fillColor=none;" parent="1" source="j4Bny53Nqc3UgjpTRana-21" target="j4Bny53Nqc3UgjpTRana-46" edge="1">
                        <mxGeometry width="100" height="100" relative="1" as="geometry">
                            <Array as="points"/>
                        </mxGeometry>
                    </mxCell>
                </UserObject>
                <mxCell id="j4Bny53Nqc3UgjpTRana-48" value="&amp;lt;&amp;lt;include&amp;gt;&amp;gt;" style="text;html=1;resizable=0;labelBackgroundColor=default;align=center;verticalAlign=middle;fontColor=#FFFFFF;fontSize=13;" parent="j4Bny53Nqc3UgjpTRana-47" vertex="1">
                    <mxGeometry x="-0.17679820441364003" relative="1" as="geometry"/>
                </mxCell>
                <UserObject label="" lucidchartObjectId="KSiOckCnkLvH" id="j4Bny53Nqc3UgjpTRana-64">
                    <mxCell style="html=1;jettySize=18;whiteSpace=wrap;fontSize=13;strokeOpacity=100;dashed=1;fixDash=1;dashPattern=3 8;strokeWidth=0.8;rounded=1;arcSize=24;edgeStyle=orthogonalEdgeStyle;startArrow=none;endArrow=block;endFill=1;exitX=0.5;exitY=1.008;exitPerimeter=0;entryX=0.5;entryY=-0.008;entryPerimeter=0;fillColor=none;" parent="1" source="j4Bny53Nqc3UgjpTRana-63" target="j4Bny53Nqc3UgjpTRana-9" edge="1">
                        <mxGeometry width="100" height="100" relative="1" as="geometry">
                            <Array as="points"/>
                        </mxGeometry>
                    </mxCell>
                </UserObject>
                <mxCell id="j4Bny53Nqc3UgjpTRana-65" value="&amp;lt;&amp;lt;include&amp;gt;&amp;gt;" style="text;html=1;resizable=0;labelBackgroundColor=default;align=center;verticalAlign=middle;fontColor=#F5F5F5;fontSize=13;" parent="j4Bny53Nqc3UgjpTRana-64" vertex="1">
                    <mxGeometry x="-0.37793318184074387" relative="1" as="geometry"/>
                </mxCell>
                <UserObject label="Ajouter des commentaires" lucidchartObjectId="gKhOOtQ1w7oT" id="j4Bny53Nqc3UgjpTRana-26">
                    <mxCell style="html=1;overflow=block;blockSpacing=1;whiteSpace=wrap;ellipse;fontSize=13;spacing=3.8;strokeOpacity=100;fillOpacity=100;fillColor=none;strokeWidth=1.5;" parent="1" vertex="1">
                        <mxGeometry x="1560" y="1260" width="120" height="90" as="geometry"/>
                    </mxCell>
                </UserObject>
                <UserObject label="" lucidchartObjectId="TjoT5E3iF57i" id="j4Bny53Nqc3UgjpTRana-84">
                    <mxCell style="html=1;jettySize=18;whiteSpace=wrap;fontSize=13;strokeOpacity=100;strokeWidth=0.8;rounded=1;arcSize=24;edgeStyle=orthogonalEdgeStyle;startArrow=none;endArrow=block;endFill=1;exitX=1;exitY=0.5;exitDx=0;exitDy=0;fillColor=none;" parent="1" source="j4Bny53Nqc3UgjpTRana-26" target="j4Bny53Nqc3UgjpTRana-5" edge="1">
                        <mxGeometry width="100" height="100" relative="1" as="geometry">
                            <Array as="points">
                                <mxPoint x="1700" y="1305"/>
                                <mxPoint x="1700" y="1921"/>
                            </Array>
                            <mxPoint x="1165.7199999999998" y="1675" as="sourcePoint"/>
                            <mxPoint x="1351.3600000000001" y="1710.2799999999997" as="targetPoint"/>
                        </mxGeometry>
                    </mxCell>
                </UserObject>
                <UserObject label="Gerer ses demandes" lucidchartObjectId="gKhOYBYgpX0A" id="j4Bny53Nqc3UgjpTRana-23">
                    <mxCell style="html=1;overflow=block;blockSpacing=1;whiteSpace=wrap;ellipse;fontSize=13;spacing=3.8;strokeOpacity=100;fillOpacity=100;fillColor=none;strokeWidth=1.5;" parent="1" vertex="1">
                        <mxGeometry x="1450" y="1600" width="120" height="90" as="geometry"/>
                    </mxCell>
                </UserObject>
                <UserObject label="" lucidchartObjectId="iPiOysRLXaVN" id="j4Bny53Nqc3UgjpTRana-59">
                    <mxCell style="html=1;jettySize=18;whiteSpace=wrap;fontSize=13;strokeOpacity=100;dashed=1;fixDash=1;dashPattern=3 8;strokeWidth=0.8;rounded=1;arcSize=24;edgeStyle=orthogonalEdgeStyle;startArrow=none;endArrow=block;endFill=1;exitX=0;exitY=0.5;entryX=1;entryY=0.5;exitDx=0;exitDy=0;entryDx=0;entryDy=0;fillColor=none;" parent="1" source="j4Bny53Nqc3UgjpTRana-26" target="j4Bny53Nqc3UgjpTRana-23" edge="1">
                        <mxGeometry width="100" height="100" relative="1" as="geometry">
                            <Array as="points"/>
                        </mxGeometry>
                    </mxCell>
                </UserObject>
                <mxCell id="j4Bny53Nqc3UgjpTRana-60" value="&amp;lt;&amp;lt;extends&amp;gt;&amp;gt;" style="text;html=1;resizable=0;labelBackgroundColor=default;align=center;verticalAlign=middle;fontColor=#D1D1D1;fontSize=13;" parent="j4Bny53Nqc3UgjpTRana-59" vertex="1">
                    <mxGeometry x="0.3768667848116092" relative="1" as="geometry">
                        <mxPoint x="-8" y="-26" as="offset"/>
                    </mxGeometry>
                </mxCell>
                <UserObject label="" lucidchartObjectId="pNhOqv8_ROgT" id="j4Bny53Nqc3UgjpTRana-38">
                    <mxCell style="html=1;jettySize=18;whiteSpace=wrap;fontSize=13;strokeOpacity=100;dashed=1;fixDash=1;dashPattern=3 8;strokeWidth=0.8;rounded=1;arcSize=24;edgeStyle=orthogonalEdgeStyle;startArrow=none;endArrow=block;endFill=1;exitX=-0.006;exitY=0.5;exitPerimeter=0;entryX=1.006;entryY=0.5;entryPerimeter=0;fillColor=none;" parent="1" source="j4Bny53Nqc3UgjpTRana-23" target="j4Bny53Nqc3UgjpTRana-68" edge="1">
                        <mxGeometry width="100" height="100" relative="1" as="geometry">
                            <Array as="points">
                                <mxPoint x="1011" y="1645"/>
                            </Array>
                        </mxGeometry>
                    </mxCell>
                </UserObject>
                <mxCell id="j4Bny53Nqc3UgjpTRana-39" value="&amp;lt;&amp;lt;include&amp;gt;&amp;gt;" style="text;html=1;resizable=0;labelBackgroundColor=default;align=center;verticalAlign=middle;fontColor=#FFFFFF;fontSize=13;" parent="j4Bny53Nqc3UgjpTRana-38" vertex="1">
                    <mxGeometry relative="1" as="geometry"/>
                </mxCell>
                <UserObject label="" lucidchartObjectId="-CoToUQ-rxOF" id="j4Bny53Nqc3UgjpTRana-77">
                    <mxCell style="html=1;jettySize=18;whiteSpace=wrap;fontSize=13;strokeOpacity=100;dashed=1;fixDash=1;dashPattern=3 8;strokeWidth=0.8;rounded=1;arcSize=24;edgeStyle=orthogonalEdgeStyle;startArrow=none;endArrow=block;endFill=1;exitX=0.37;exitY=0.004;entryX=1.006;entryY=0.5;entryPerimeter=0;exitDx=0;exitDy=0;exitPerimeter=0;fillColor=none;" parent="1" source="j4Bny53Nqc3UgjpTRana-23" target="j4Bny53Nqc3UgjpTRana-22" edge="1">
                        <mxGeometry width="100" height="100" relative="1" as="geometry">
                            <Array as="points"/>
                        </mxGeometry>
                    </mxCell>
                </UserObject>
                <mxCell id="j4Bny53Nqc3UgjpTRana-78" value="&amp;lt;&amp;lt;include&amp;gt;&amp;gt;" style="text;html=1;resizable=0;labelBackgroundColor=default;align=center;verticalAlign=middle;fontColor=#F7F7F7;fontSize=13;" parent="j4Bny53Nqc3UgjpTRana-77" vertex="1">
                    <mxGeometry x="0.40876492113599916" relative="1" as="geometry">
                        <mxPoint x="-4" y="55" as="offset"/>
                    </mxGeometry>
                </mxCell>
                <UserObject label="Donner des conseils en ligne" lucidchartObjectId="gKhOQhKqE96p" id="j4Bny53Nqc3UgjpTRana-25">
                    <mxCell style="html=1;overflow=block;blockSpacing=1;whiteSpace=wrap;ellipse;fontSize=13;spacing=3.8;strokeOpacity=100;fillOpacity=100;fillColor=none;strokeWidth=1.5;" parent="1" vertex="1">
                        <mxGeometry x="890" y="1754" width="120" height="90" as="geometry"/>
                    </mxCell>
                </UserObject>
                <UserObject label="" lucidchartObjectId="r3hOEuT1eAWk" id="j4Bny53Nqc3UgjpTRana-44">
                    <mxCell style="html=1;jettySize=18;whiteSpace=wrap;fontSize=13;strokeOpacity=100;dashed=1;fixDash=1;dashPattern=3 8;strokeWidth=0.8;rounded=1;arcSize=24;edgeStyle=orthogonalEdgeStyle;startArrow=none;endArrow=block;endFill=1;exitX=0.5;exitY=1.008;exitPerimeter=0;fillColor=none;" parent="1" source="j4Bny53Nqc3UgjpTRana-68" target="j4Bny53Nqc3UgjpTRana-25" edge="1">
                        <mxGeometry width="100" height="100" relative="1" as="geometry">
                            <Array as="points"/>
                        </mxGeometry>
                    </mxCell>
                </UserObject>
                <mxCell id="j4Bny53Nqc3UgjpTRana-45" value="&amp;lt;&amp;lt;extends&amp;gt;&amp;gt;" style="text;html=1;resizable=0;labelBackgroundColor=default;align=center;verticalAlign=middle;fontColor=#FAFAFA;fontSize=13;" parent="j4Bny53Nqc3UgjpTRana-44" vertex="1">
                    <mxGeometry x="0.6108141942398759" relative="1" as="geometry">
                        <mxPoint y="-22" as="offset"/>
                    </mxGeometry>
                </mxCell>
                <UserObject label="" lucidchartObjectId="zPiOzGPUCXFw" id="j4Bny53Nqc3UgjpTRana-61">
                    <mxCell style="html=1;jettySize=18;whiteSpace=wrap;fontSize=13;strokeOpacity=100;dashed=1;fixDash=1;dashPattern=3 8;strokeWidth=0.8;rounded=1;arcSize=24;edgeStyle=orthogonalEdgeStyle;startArrow=none;endArrow=block;endFill=1;exitX=1.006;exitY=0.5;exitPerimeter=0;fillColor=none;" parent="1" source="j4Bny53Nqc3UgjpTRana-25" target="j4Bny53Nqc3UgjpTRana-26" edge="1">
                        <mxGeometry width="100" height="100" relative="1" as="geometry">
                            <Array as="points">
                                <mxPoint x="1620" y="1800"/>
                            </Array>
                        </mxGeometry>
                    </mxCell>
                </UserObject>
                <mxCell id="j4Bny53Nqc3UgjpTRana-62" value="&amp;lt;&amp;lt;extends&amp;gt;&amp;gt;" style="text;html=1;resizable=0;labelBackgroundColor=default;align=center;verticalAlign=middle;fontColor=#F2F2F2;fontSize=13;" parent="j4Bny53Nqc3UgjpTRana-61" vertex="1">
                    <mxGeometry x="0.22777596725093852" relative="1" as="geometry"/>
                </mxCell>
                <UserObject label="Gerer les comptes utilisateurs" lucidchartObjectId="gKhOxtAWATnA" id="j4Bny53Nqc3UgjpTRana-27">
                    <mxCell style="html=1;overflow=block;blockSpacing=1;whiteSpace=wrap;ellipse;fontSize=13;spacing=3.8;strokeOpacity=100;fillOpacity=100;fillColor=none;strokeWidth=1.5;" parent="1" vertex="1">
                        <mxGeometry x="1990" y="2040" width="120" height="90" as="geometry"/>
                    </mxCell>
                </UserObject>
                <mxCell id="pdOqjPzDcPCRSGeedMDQ-2" value="" style="rounded=0;html=1;labelBackgroundColor=none;fontColor=none;noLabel=1;whiteSpace=wrap;" parent="1" vertex="1">
                    <mxGeometry x="1875" y="921" width="290" height="60" as="geometry"/>
                </mxCell>
                <mxCell id="pdOqjPzDcPCRSGeedMDQ-1" value="Application GreenCare" style="text;html=1;strokeColor=none;fillColor=none;align=center;verticalAlign=middle;whiteSpace=wrap;rounded=0;fontSize=24;fontStyle=1;" parent="1" vertex="1">
                    <mxGeometry x="1872" y="936" width="295" height="30" as="geometry"/>
                </mxCell>
            </root>
        </mxGraphModel>
    </diagram>
    <diagram id="kgpKYQtTHZ0yAKxKKP6v" name="Diagramme de sÃ©quence">
        <mxGraphModel dx="2327" dy="851" grid="1" gridSize="10" guides="1" tooltips="1" connect="1" arrows="1" fold="1" page="1" pageScale="1" pageWidth="850" pageHeight="1100" math="0" shadow="0">
            <root>
                <mxCell id="0"/>
                <mxCell id="1" parent="0"/>
                <mxCell id="nsDuUOY693nVXomvUY1m-1" value="Sign in" style="shape=umlFrame;whiteSpace=wrap;html=1;pointerEvents=0;recursiveResize=0;container=1;collapsible=0;width=160;swimlaneFillColor=default;gradientColor=none;fillColor=default;" parent="1" vertex="1">
                    <mxGeometry x="-20" y="40" width="780" height="680" as="geometry"/>
                </mxCell>
                <mxCell id="AVhvUhQ5SZKBKN3h2r3d-23" value="[Login data is incorrect]" style="text;html=1;strokeColor=none;fillColor=none;align=center;verticalAlign=middle;whiteSpace=wrap;rounded=0;" parent="nsDuUOY693nVXomvUY1m-1" vertex="1">
                    <mxGeometry x="70" y="510" width="110" height="30" as="geometry"/>
                </mxCell>
                <mxCell id="AVhvUhQ5SZKBKN3h2r3d-25" value="[Login data is correct]" style="text;html=1;strokeColor=none;fillColor=none;align=center;verticalAlign=middle;whiteSpace=wrap;rounded=0;" parent="nsDuUOY693nVXomvUY1m-1" vertex="1">
                    <mxGeometry x="80" y="370" width="110" height="30" as="geometry"/>
                </mxCell>
                <mxCell id="AVhvUhQ5SZKBKN3h2r3d-26" value="Seccessfull login" style="verticalAlign=bottom;endArrow=open;dashed=1;endSize=8;shadow=0;strokeWidth=1;exitX=-0.2;exitY=0.79;exitDx=0;exitDy=0;exitPerimeter=0;" parent="nsDuUOY693nVXomvUY1m-1" edge="1">
                    <mxGeometry relative="1" as="geometry">
                        <mxPoint x="200" y="530.5" as="targetPoint"/>
                        <mxPoint x="378" y="529.5" as="sourcePoint"/>
                        <Array as="points">
                            <mxPoint x="355" y="530"/>
                        </Array>
                    </mxGeometry>
                </mxCell>
                <mxCell id="_-qhiVIwaz4k8V6tLD18-7" value="success" style="verticalAlign=bottom;endArrow=open;dashed=1;endSize=8;shadow=0;strokeWidth=1;exitX=-0.04;exitY=0.626;exitDx=0;exitDy=0;exitPerimeter=0;entryX=1.213;entryY=0.003;entryDx=0;entryDy=0;entryPerimeter=0;" parent="nsDuUOY693nVXomvUY1m-1" target="_-qhiVIwaz4k8V6tLD18-10" edge="1">
                    <mxGeometry x="0.0018" relative="1" as="geometry">
                        <mxPoint x="376" y="490" as="targetPoint"/>
                        <mxPoint x="533.5999999999999" y="491.6200000000001" as="sourcePoint"/>
                        <Array as="points">
                            <mxPoint x="521" y="490.5"/>
                        </Array>
                        <mxPoint as="offset"/>
                    </mxGeometry>
                </mxCell>
                <mxCell id="_-qhiVIwaz4k8V6tLD18-8" value="Failure login" style="verticalAlign=bottom;endArrow=open;dashed=1;endSize=8;shadow=0;strokeWidth=1;exitX=-0.2;exitY=0.79;exitDx=0;exitDy=0;exitPerimeter=0;" parent="nsDuUOY693nVXomvUY1m-1" edge="1">
                    <mxGeometry relative="1" as="geometry">
                        <mxPoint x="200" y="421" as="targetPoint"/>
                        <mxPoint x="378" y="420" as="sourcePoint"/>
                        <Array as="points">
                            <mxPoint x="355" y="420.5"/>
                        </Array>
                    </mxGeometry>
                </mxCell>
                <mxCell id="3nuBFxr9cyL0pnOWT2aG-5" value=": System" style="shape=umlLifeline;perimeter=lifelinePerimeter;container=1;collapsible=0;recursiveResize=0;rounded=0;shadow=0;strokeWidth=1;" parent="1" vertex="1">
                    <mxGeometry x="310" y="90" width="100" height="600" as="geometry"/>
                </mxCell>
                <mxCell id="3nuBFxr9cyL0pnOWT2aG-6" value="" style="points=[];perimeter=orthogonalPerimeter;rounded=0;shadow=0;strokeWidth=1;" parent="3nuBFxr9cyL0pnOWT2aG-5" vertex="1">
                    <mxGeometry x="45" y="80" width="10" height="40" as="geometry"/>
                </mxCell>
                <mxCell id="AVhvUhQ5SZKBKN3h2r3d-8" value="" style="points=[];perimeter=orthogonalPerimeter;rounded=0;shadow=0;strokeWidth=1;" parent="3nuBFxr9cyL0pnOWT2aG-5" vertex="1">
                    <mxGeometry x="45" y="160" width="10" height="30" as="geometry"/>
                </mxCell>
                <mxCell id="AVhvUhQ5SZKBKN3h2r3d-24" value="error" style="verticalAlign=bottom;endArrow=open;dashed=1;endSize=8;shadow=0;strokeWidth=1;exitX=-0.04;exitY=0.626;exitDx=0;exitDy=0;exitPerimeter=0;" parent="3nuBFxr9cyL0pnOWT2aG-5" edge="1">
                    <mxGeometry x="0.0018" relative="1" as="geometry">
                        <mxPoint x="50" y="331" as="targetPoint"/>
                        <mxPoint x="207.5999999999999" y="332.6200000000001" as="sourcePoint"/>
                        <Array as="points">
                            <mxPoint x="195" y="331.5"/>
                        </Array>
                        <mxPoint as="offset"/>
                    </mxGeometry>
                </mxCell>
                <mxCell id="_-qhiVIwaz4k8V6tLD18-10" value="" style="points=[];perimeter=orthogonalPerimeter;rounded=0;shadow=0;strokeWidth=1;" parent="3nuBFxr9cyL0pnOWT2aG-5" vertex="1">
                    <mxGeometry x="45" y="440" width="10" height="40" as="geometry"/>
                </mxCell>
                <mxCell id="_-qhiVIwaz4k8V6tLD18-11" value="" style="points=[];perimeter=orthogonalPerimeter;rounded=0;shadow=0;strokeWidth=1;" parent="3nuBFxr9cyL0pnOWT2aG-5" vertex="1">
                    <mxGeometry x="45" y="330" width="10" height="40" as="geometry"/>
                </mxCell>
                <mxCell id="3nuBFxr9cyL0pnOWT2aG-8" value="Get connexion interface()" style="verticalAlign=bottom;endArrow=block;entryX=0;entryY=0;shadow=0;strokeWidth=1;" parent="1" source="AVhvUhQ5SZKBKN3h2r3d-3" target="3nuBFxr9cyL0pnOWT2aG-6" edge="1">
                    <mxGeometry x="0.0012" relative="1" as="geometry">
                        <mxPoint x="185" y="170.0000000000001" as="sourcePoint"/>
                        <mxPoint as="offset"/>
                    </mxGeometry>
                </mxCell>
                <mxCell id="AVhvUhQ5SZKBKN3h2r3d-3" value="Client" style="shape=umlLifeline;participant=umlActor;perimeter=lifelinePerimeter;whiteSpace=wrap;html=1;container=1;collapsible=0;recursiveResize=0;verticalAlign=bottom;spacingTop=36;outlineConnect=0;labelPosition=center;verticalLabelPosition=top;align=center;" parent="1" vertex="1">
                    <mxGeometry x="170" y="90" width="20" height="600" as="geometry"/>
                </mxCell>
                <mxCell id="AVhvUhQ5SZKBKN3h2r3d-5" value="Render connexion interface" style="verticalAlign=bottom;endArrow=open;dashed=1;endSize=8;shadow=0;strokeWidth=1;" parent="1" source="3nuBFxr9cyL0pnOWT2aG-6" target="AVhvUhQ5SZKBKN3h2r3d-3" edge="1">
                    <mxGeometry x="-0.0019" relative="1" as="geometry">
                        <mxPoint x="190" y="210" as="targetPoint"/>
                        <mxPoint x="340" y="209.99999999999977" as="sourcePoint"/>
                        <Array as="points">
                            <mxPoint x="300" y="210"/>
                        </Array>
                        <mxPoint as="offset"/>
                    </mxGeometry>
                </mxCell>
                <mxCell id="AVhvUhQ5SZKBKN3h2r3d-6" value="Send connexion form(id, mdp)" style="verticalAlign=bottom;endArrow=block;entryX=0;entryY=0;shadow=0;strokeWidth=1;" parent="1" edge="1">
                    <mxGeometry relative="1" as="geometry">
                        <mxPoint x="180" y="250" as="sourcePoint"/>
                        <mxPoint x="355" y="250" as="targetPoint"/>
                    </mxGeometry>
                </mxCell>
                <mxCell id="AVhvUhQ5SZKBKN3h2r3d-13" value=": Database" style="shape=umlLifeline;perimeter=lifelinePerimeter;container=1;collapsible=0;recursiveResize=0;rounded=0;shadow=0;strokeWidth=1;" parent="1" vertex="1">
                    <mxGeometry x="470" y="90" width="100" height="600" as="geometry"/>
                </mxCell>
                <mxCell id="AVhvUhQ5SZKBKN3h2r3d-15" value="" style="points=[];perimeter=orthogonalPerimeter;rounded=0;shadow=0;strokeWidth=1;" parent="AVhvUhQ5SZKBKN3h2r3d-13" vertex="1">
                    <mxGeometry x="45" y="188" width="10" height="382" as="geometry"/>
                </mxCell>
                <mxCell id="AVhvUhQ5SZKBKN3h2r3d-27" value="" style="html=1;points=[];perimeter=orthogonalPerimeter;" parent="AVhvUhQ5SZKBKN3h2r3d-13" vertex="1">
                    <mxGeometry x="50" y="210" width="10" height="20" as="geometry"/>
                </mxCell>
                <mxCell id="AVhvUhQ5SZKBKN3h2r3d-28" value="Verification()" style="edgeStyle=orthogonalEdgeStyle;html=1;align=left;spacingLeft=2;endArrow=block;rounded=0;entryX=1.041;entryY=0.997;exitX=0.967;exitY=0.04;exitDx=0;exitDy=0;exitPerimeter=0;entryDx=0;entryDy=0;entryPerimeter=0;" parent="AVhvUhQ5SZKBKN3h2r3d-13" source="AVhvUhQ5SZKBKN3h2r3d-15" target="AVhvUhQ5SZKBKN3h2r3d-27" edge="1">
                    <mxGeometry relative="1" as="geometry">
                        <mxPoint x="55" y="238" as="sourcePoint"/>
                        <Array as="points">
                            <mxPoint x="55" y="200"/>
                            <mxPoint x="85" y="200"/>
                            <mxPoint x="85" y="230"/>
                        </Array>
                    </mxGeometry>
                </mxCell>
                <mxCell id="AVhvUhQ5SZKBKN3h2r3d-12" value="Alt" style="shape=umlFrame;whiteSpace=wrap;html=1;width=120;height=30;boundedLbl=1;verticalAlign=middle;align=left;spacingLeft=5;" parent="AVhvUhQ5SZKBKN3h2r3d-13" vertex="1">
                    <mxGeometry x="-480" y="260" width="710" height="270" as="geometry"/>
                </mxCell>
                <mxCell id="AVhvUhQ5SZKBKN3h2r3d-21" value="" style="endArrow=none;dashed=1;html=1;rounded=0;entryX=1.002;entryY=0.533;entryDx=0;entryDy=0;entryPerimeter=0;exitX=-0.007;exitY=0.53;exitDx=0;exitDy=0;exitPerimeter=0;" parent="AVhvUhQ5SZKBKN3h2r3d-13" source="AVhvUhQ5SZKBKN3h2r3d-12" target="AVhvUhQ5SZKBKN3h2r3d-12" edge="1">
                    <mxGeometry width="50" height="50" relative="1" as="geometry">
                        <mxPoint x="-850" y="490" as="sourcePoint"/>
                        <mxPoint x="-800" y="440" as="targetPoint"/>
                    </mxGeometry>
                </mxCell>
                <mxCell id="AVhvUhQ5SZKBKN3h2r3d-17" value="Request()" style="verticalAlign=bottom;endArrow=block;shadow=0;strokeWidth=1;entryX=0.025;entryY=0.001;entryDx=0;entryDy=0;entryPerimeter=0;" parent="1" target="AVhvUhQ5SZKBKN3h2r3d-15" edge="1">
                    <mxGeometry relative="1" as="geometry">
                        <mxPoint x="360" y="280" as="sourcePoint"/>
                        <mxPoint x="510" y="281" as="targetPoint"/>
                    </mxGeometry>
                </mxCell>
                <mxCell id="sxMWDe2W47hRPrV32jub-3" value="Sign up" style="shape=umlFrame;whiteSpace=wrap;html=1;pointerEvents=0;recursiveResize=0;container=1;collapsible=0;width=160;swimlaneFillColor=default;" parent="1" vertex="1">
                    <mxGeometry x="830" y="40" width="550" height="625" as="geometry"/>
                </mxCell>
                <mxCell id="sxMWDe2W47hRPrV32jub-10" value=": System" style="shape=umlLifeline;perimeter=lifelinePerimeter;container=1;collapsible=0;recursiveResize=0;rounded=0;shadow=0;strokeWidth=1;" parent="1" vertex="1">
                    <mxGeometry x="1110" y="95" width="100" height="560" as="geometry"/>
                </mxCell>
                <mxCell id="sxMWDe2W47hRPrV32jub-11" value="" style="points=[];perimeter=orthogonalPerimeter;rounded=0;shadow=0;strokeWidth=1;" parent="sxMWDe2W47hRPrV32jub-10" vertex="1">
                    <mxGeometry x="45" y="80" width="10" height="40" as="geometry"/>
                </mxCell>
                <mxCell id="sxMWDe2W47hRPrV32jub-12" value="" style="points=[];perimeter=orthogonalPerimeter;rounded=0;shadow=0;strokeWidth=1;" parent="sxMWDe2W47hRPrV32jub-10" vertex="1">
                    <mxGeometry x="45" y="160" width="10" height="390" as="geometry"/>
                </mxCell>
                <mxCell id="_-qhiVIwaz4k8V6tLD18-3" value="" style="html=1;points=[];perimeter=orthogonalPerimeter;outlineConnect=0;targetShapes=umlLifeline;portConstraint=eastwest;newEdgeStyle={&quot;edgeStyle&quot;:&quot;elbowEdgeStyle&quot;,&quot;elbow&quot;:&quot;vertical&quot;,&quot;curved&quot;:0,&quot;rounded&quot;:0};" parent="sxMWDe2W47hRPrV32jub-10" vertex="1">
                    <mxGeometry x="50" y="200" width="10" height="40" as="geometry"/>
                </mxCell>
                <mxCell id="_-qhiVIwaz4k8V6tLD18-4" value="hash_password()" style="html=1;align=left;spacingLeft=2;endArrow=block;rounded=0;edgeStyle=orthogonalEdgeStyle;curved=0;rounded=0;" parent="sxMWDe2W47hRPrV32jub-10" target="_-qhiVIwaz4k8V6tLD18-3" edge="1">
                    <mxGeometry relative="1" as="geometry">
                        <mxPoint x="55" y="180" as="sourcePoint"/>
                        <Array as="points">
                            <mxPoint x="85" y="210"/>
                        </Array>
                    </mxGeometry>
                </mxCell>
                <mxCell id="2bO-wsEeIPn5QeYOcifV-21" value="success" style="verticalAlign=bottom;endArrow=open;dashed=1;endSize=8;shadow=0;strokeWidth=1;" parent="sxMWDe2W47hRPrV32jub-10" edge="1">
                    <mxGeometry relative="1" as="geometry">
                        <mxPoint x="55" y="376" as="targetPoint"/>
                        <mxPoint x="215" y="376" as="sourcePoint"/>
                        <Array as="points">
                            <mxPoint x="182" y="376.47"/>
                            <mxPoint x="162" y="376.47"/>
                            <mxPoint x="112" y="376.47"/>
                        </Array>
                        <mxPoint as="offset"/>
                    </mxGeometry>
                </mxCell>
                <mxCell id="sxMWDe2W47hRPrV32jub-13" value="Get sign up interface" style="verticalAlign=bottom;endArrow=block;entryX=0;entryY=0;shadow=0;strokeWidth=1;" parent="1" source="sxMWDe2W47hRPrV32jub-14" target="sxMWDe2W47hRPrV32jub-11" edge="1">
                    <mxGeometry x="0.0012" relative="1" as="geometry">
                        <mxPoint x="985" y="175.0000000000001" as="sourcePoint"/>
                        <mxPoint as="offset"/>
                    </mxGeometry>
                </mxCell>
                <mxCell id="sxMWDe2W47hRPrV32jub-14" value="Client" style="shape=umlLifeline;participant=umlActor;perimeter=lifelinePerimeter;whiteSpace=wrap;html=1;container=1;collapsible=0;recursiveResize=0;verticalAlign=bottom;spacingTop=36;outlineConnect=0;labelPosition=center;verticalLabelPosition=top;align=center;" parent="1" vertex="1">
                    <mxGeometry x="970" y="95" width="20" height="560" as="geometry"/>
                </mxCell>
                <mxCell id="sxMWDe2W47hRPrV32jub-15" value="Render sign up interface" style="verticalAlign=bottom;endArrow=open;dashed=1;endSize=8;shadow=0;strokeWidth=1;" parent="1" source="sxMWDe2W47hRPrV32jub-11" edge="1">
                    <mxGeometry x="-0.0034" relative="1" as="geometry">
                        <mxPoint x="980" y="215" as="targetPoint"/>
                        <mxPoint x="1140" y="214.99999999999977" as="sourcePoint"/>
                        <mxPoint as="offset"/>
                    </mxGeometry>
                </mxCell>
                <mxCell id="sxMWDe2W47hRPrV32jub-16" value="sendSignUpForm()" style="verticalAlign=bottom;endArrow=block;entryX=0;entryY=0;shadow=0;strokeWidth=1;" parent="1" source="sxMWDe2W47hRPrV32jub-14" edge="1">
                    <mxGeometry relative="1" as="geometry">
                        <mxPoint x="990" y="255" as="sourcePoint"/>
                        <mxPoint x="1155" y="255" as="targetPoint"/>
                    </mxGeometry>
                </mxCell>
                <mxCell id="sxMWDe2W47hRPrV32jub-17" value=": Database" style="shape=umlLifeline;perimeter=lifelinePerimeter;container=1;collapsible=0;recursiveResize=0;rounded=0;shadow=0;strokeWidth=1;" parent="1" vertex="1">
                    <mxGeometry x="1270" y="95" width="100" height="560" as="geometry"/>
                </mxCell>
                <mxCell id="_-qhiVIwaz4k8V6tLD18-6" value="" style="points=[];perimeter=orthogonalPerimeter;rounded=0;shadow=0;strokeWidth=1;" parent="sxMWDe2W47hRPrV32jub-17" vertex="1">
                    <mxGeometry x="45" y="250" width="10" height="300" as="geometry"/>
                </mxCell>
                <mxCell id="sxMWDe2W47hRPrV32jub-21" value="Request()" style="verticalAlign=bottom;endArrow=block;shadow=0;strokeWidth=1;exitX=1.041;exitY=0.091;exitDx=0;exitDy=0;exitPerimeter=0;entryX=0.159;entryY=0.016;entryDx=0;entryDy=0;entryPerimeter=0;" parent="1" edge="1">
                    <mxGeometry relative="1" as="geometry">
                        <mxPoint x="1165.4099999999999" y="344.94000000000005" as="sourcePoint"/>
                        <mxPoint x="1316.5900000000001" y="343.3119999999999" as="targetPoint"/>
                    </mxGeometry>
                </mxCell>
                <mxCell id="_-qhiVIwaz4k8V6tLD18-14" value="CrÃ©er une demande de rendez-vous Ã  domicile" style="shape=umlFrame;whiteSpace=wrap;html=1;pointerEvents=0;recursiveResize=0;container=1;collapsible=0;width=160;swimlaneFillColor=default;" parent="1" vertex="1">
                    <mxGeometry x="1460" y="40" width="680" height="680" as="geometry"/>
                </mxCell>
                <mxCell id="_-qhiVIwaz4k8V6tLD18-16" value="Client" style="shape=umlLifeline;perimeter=lifelinePerimeter;whiteSpace=wrap;html=1;container=1;dropTarget=0;collapsible=0;recursiveResize=0;outlineConnect=0;portConstraint=eastwest;newEdgeStyle={&quot;edgeStyle&quot;:&quot;elbowEdgeStyle&quot;,&quot;elbow&quot;:&quot;vertical&quot;,&quot;curved&quot;:0,&quot;rounded&quot;:0};participant=umlActor;labelPosition=center;verticalLabelPosition=top;align=center;verticalAlign=bottom;" parent="_-qhiVIwaz4k8V6tLD18-14" vertex="1">
                    <mxGeometry x="100" y="90" width="20" height="560" as="geometry"/>
                </mxCell>
                <mxCell id="_-qhiVIwaz4k8V6tLD18-17" value="Ref" style="shape=umlFrame;whiteSpace=wrap;html=1;pointerEvents=0;recursiveResize=0;container=1;collapsible=0;width=50;swimlaneFillColor=default;height=30;" parent="_-qhiVIwaz4k8V6tLD18-14" vertex="1">
                    <mxGeometry x="90" y="150" width="160" height="50" as="geometry"/>
                </mxCell>
                <mxCell id="_-qhiVIwaz4k8V6tLD18-18" value="Se connecter" style="text;html=1;align=center;verticalAlign=middle;resizable=0;points=[];autosize=1;strokeColor=none;fillColor=none;" parent="_-qhiVIwaz4k8V6tLD18-17" vertex="1">
                    <mxGeometry x="50" y="10" width="90" height="30" as="geometry"/>
                </mxCell>
                <mxCell id="_3kXmEg47liFD6dDeN9S-1" value=":system" style="shape=umlLifeline;perimeter=lifelinePerimeter;whiteSpace=wrap;html=1;container=1;dropTarget=0;collapsible=0;recursiveResize=0;outlineConnect=0;portConstraint=eastwest;newEdgeStyle={&quot;edgeStyle&quot;:&quot;elbowEdgeStyle&quot;,&quot;elbow&quot;:&quot;vertical&quot;,&quot;curved&quot;:0,&quot;rounded&quot;:0};" parent="_-qhiVIwaz4k8V6tLD18-14" vertex="1">
                    <mxGeometry x="310" y="90" width="100" height="560" as="geometry"/>
                </mxCell>
                <mxCell id="_3kXmEg47liFD6dDeN9S-3" value="" style="rounded=0;whiteSpace=wrap;html=1;" parent="_-qhiVIwaz4k8V6tLD18-14" vertex="1">
                    <mxGeometry x="352.5" y="220" width="15" height="400" as="geometry"/>
                </mxCell>
                <mxCell id="pupBB3GUxLn4kr1PuQrB-1" value="" style="endArrow=classic;html=1;rounded=0;" parent="_-qhiVIwaz4k8V6tLD18-14" edge="1">
                    <mxGeometry width="50" height="50" relative="1" as="geometry">
                        <mxPoint x="352.5" y="221" as="sourcePoint"/>
                        <mxPoint x="109.94444444444434" y="221" as="targetPoint"/>
                    </mxGeometry>
                </mxCell>
                <mxCell id="pupBB3GUxLn4kr1PuQrB-2" value="afficherMenuDemandeDeRendezVous()" style="edgeLabel;html=1;align=center;verticalAlign=middle;resizable=0;points=[];" parent="pupBB3GUxLn4kr1PuQrB-1" connectable="0" vertex="1">
                    <mxGeometry x="-0.3078" y="-2" relative="1" as="geometry">
                        <mxPoint x="-26" y="11" as="offset"/>
                    </mxGeometry>
                </mxCell>
                <mxCell id="pupBB3GUxLn4kr1PuQrB-3" value="" style="endArrow=classic;html=1;rounded=0;" parent="_-qhiVIwaz4k8V6tLD18-14" edge="1">
                    <mxGeometry width="50" height="50" relative="1" as="geometry">
                        <mxPoint x="109.94444444444434" y="251.75" as="sourcePoint"/>
                        <mxPoint x="352.5" y="251.75" as="targetPoint"/>
                    </mxGeometry>
                </mxCell>
                <mxCell id="pupBB3GUxLn4kr1PuQrB-4" value="choisirModeDeRendezVous()" style="edgeLabel;html=1;align=center;verticalAlign=middle;resizable=0;points=[];" parent="pupBB3GUxLn4kr1PuQrB-3" connectable="0" vertex="1">
                    <mxGeometry x="-0.2831" relative="1" as="geometry">
                        <mxPoint x="33" y="7" as="offset"/>
                    </mxGeometry>
                </mxCell>
                <mxCell id="pupBB3GUxLn4kr1PuQrB-5" value="" style="endArrow=classic;html=1;rounded=0;" parent="_-qhiVIwaz4k8V6tLD18-14" edge="1">
                    <mxGeometry width="50" height="50" relative="1" as="geometry">
                        <mxPoint x="109.94444444444434" y="280.75" as="sourcePoint"/>
                        <mxPoint x="352.5" y="280.75" as="targetPoint"/>
                    </mxGeometry>
                </mxCell>
                <mxCell id="pupBB3GUxLn4kr1PuQrB-6" value="choisirDemandeDomicile()" style="edgeLabel;html=1;align=center;verticalAlign=middle;resizable=0;points=[];" parent="pupBB3GUxLn4kr1PuQrB-5" connectable="0" vertex="1">
                    <mxGeometry x="-0.2831" relative="1" as="geometry">
                        <mxPoint x="33" y="7" as="offset"/>
                    </mxGeometry>
                </mxCell>
                <mxCell id="pupBB3GUxLn4kr1PuQrB-7" value="" style="endArrow=classic;html=1;rounded=0;" parent="_-qhiVIwaz4k8V6tLD18-14" edge="1">
                    <mxGeometry width="50" height="50" relative="1" as="geometry">
                        <mxPoint x="109.94444444444434" y="332.75" as="sourcePoint"/>
                        <mxPoint x="352.5" y="332.75" as="targetPoint"/>
                    </mxGeometry>
                </mxCell>
                <mxCell id="pupBB3GUxLn4kr1PuQrB-8" value="saisirChamps()" style="edgeLabel;html=1;align=center;verticalAlign=middle;resizable=0;points=[];" parent="pupBB3GUxLn4kr1PuQrB-7" connectable="0" vertex="1">
                    <mxGeometry x="-0.2831" relative="1" as="geometry">
                        <mxPoint x="33" y="7" as="offset"/>
                    </mxGeometry>
                </mxCell>
                <mxCell id="pupBB3GUxLn4kr1PuQrB-9" value="" style="endArrow=classic;html=1;rounded=0;" parent="_-qhiVIwaz4k8V6tLD18-14" edge="1">
                    <mxGeometry width="50" height="50" relative="1" as="geometry">
                        <mxPoint x="109.94444444444434" y="358" as="sourcePoint"/>
                        <mxPoint x="352.5" y="358" as="targetPoint"/>
                    </mxGeometry>
                </mxCell>
                <mxCell id="pupBB3GUxLn4kr1PuQrB-10" value="valider()" style="edgeLabel;html=1;align=center;verticalAlign=middle;resizable=0;points=[];" parent="pupBB3GUxLn4kr1PuQrB-9" connectable="0" vertex="1">
                    <mxGeometry x="-0.2831" relative="1" as="geometry">
                        <mxPoint x="33" y="7" as="offset"/>
                    </mxGeometry>
                </mxCell>
                <mxCell id="pupBB3GUxLn4kr1PuQrB-14" value="Alt" style="shape=umlFrame;whiteSpace=wrap;html=1;width=60;height=30;boundedLbl=1;verticalAlign=middle;align=left;spacingLeft=5;" parent="_-qhiVIwaz4k8V6tLD18-14" vertex="1">
                    <mxGeometry x="10" y="420" width="650" height="180" as="geometry"/>
                </mxCell>
                <mxCell id="pupBB3GUxLn4kr1PuQrB-16" value="[true]" style="text;html=1;strokeColor=none;fillColor=none;align=center;verticalAlign=middle;whiteSpace=wrap;rounded=0;" parent="_-qhiVIwaz4k8V6tLD18-14" vertex="1">
                    <mxGeometry x="30" y="450" width="60" height="30" as="geometry"/>
                </mxCell>
                <mxCell id="pupBB3GUxLn4kr1PuQrB-17" value="[false]" style="text;html=1;strokeColor=none;fillColor=none;align=center;verticalAlign=middle;whiteSpace=wrap;rounded=0;" parent="_-qhiVIwaz4k8V6tLD18-14" vertex="1">
                    <mxGeometry x="30" y="540" width="60" height="30" as="geometry"/>
                </mxCell>
                <mxCell id="pupBB3GUxLn4kr1PuQrB-18" value="confirmationPriseDeRendezVous()" style="verticalAlign=bottom;endArrow=open;dashed=1;endSize=8;shadow=0;strokeWidth=1;" parent="_-qhiVIwaz4k8V6tLD18-14" edge="1">
                    <mxGeometry x="0.2474" y="6" relative="1" as="geometry">
                        <mxPoint x="109.5" y="464.47" as="targetPoint"/>
                        <mxPoint x="350" y="464" as="sourcePoint"/>
                        <Array as="points">
                            <mxPoint x="317" y="464.47"/>
                            <mxPoint x="297" y="464.47"/>
                            <mxPoint x="247" y="464.47"/>
                        </Array>
                        <mxPoint as="offset"/>
                    </mxGeometry>
                </mxCell>
                <mxCell id="2bO-wsEeIPn5QeYOcifV-1" value=": Database" style="shape=umlLifeline;perimeter=lifelinePerimeter;container=1;collapsible=0;recursiveResize=0;rounded=0;shadow=0;strokeWidth=1;" parent="_-qhiVIwaz4k8V6tLD18-14" vertex="1">
                    <mxGeometry x="480" y="90" width="100" height="560" as="geometry"/>
                </mxCell>
                <mxCell id="2bO-wsEeIPn5QeYOcifV-2" value="" style="points=[];perimeter=orthogonalPerimeter;rounded=0;shadow=0;strokeWidth=1;" parent="2bO-wsEeIPn5QeYOcifV-1" vertex="1">
                    <mxGeometry x="45" y="290" width="10" height="240" as="geometry"/>
                </mxCell>
                <mxCell id="2bO-wsEeIPn5QeYOcifV-6" value="" style="endArrow=classic;html=1;rounded=0;entryX=0.152;entryY=0;entryDx=0;entryDy=0;entryPerimeter=0;" parent="2bO-wsEeIPn5QeYOcifV-1" edge="1">
                    <mxGeometry width="50" height="50" relative="1" as="geometry">
                        <mxPoint x="-112.49555555555571" y="289.52" as="sourcePoint"/>
                        <mxPoint x="46.51999999999998" y="290.0000000000001" as="targetPoint"/>
                    </mxGeometry>
                </mxCell>
                <mxCell id="2bO-wsEeIPn5QeYOcifV-7" value="request()" style="edgeLabel;html=1;align=center;verticalAlign=middle;resizable=0;points=[];" parent="2bO-wsEeIPn5QeYOcifV-6" connectable="0" vertex="1">
                    <mxGeometry x="-0.2831" relative="1" as="geometry">
                        <mxPoint x="33" y="7" as="offset"/>
                    </mxGeometry>
                </mxCell>
                <mxCell id="2bO-wsEeIPn5QeYOcifV-8" value="" style="endArrow=none;dashed=1;html=1;rounded=0;exitX=-0.002;exitY=0.52;exitDx=0;exitDy=0;exitPerimeter=0;entryX=1.008;entryY=0.518;entryDx=0;entryDy=0;entryPerimeter=0;" parent="_-qhiVIwaz4k8V6tLD18-14" source="pupBB3GUxLn4kr1PuQrB-14" target="pupBB3GUxLn4kr1PuQrB-14" edge="1">
                    <mxGeometry width="50" height="50" relative="1" as="geometry">
                        <mxPoint x="180" y="570" as="sourcePoint"/>
                        <mxPoint x="230" y="520" as="targetPoint"/>
                    </mxGeometry>
                </mxCell>
                <mxCell id="2bO-wsEeIPn5QeYOcifV-9" value="success" style="verticalAlign=bottom;endArrow=open;dashed=1;endSize=8;shadow=0;strokeWidth=1;" parent="_-qhiVIwaz4k8V6tLD18-14" edge="1">
                    <mxGeometry relative="1" as="geometry">
                        <mxPoint x="370" y="440" as="targetPoint"/>
                        <mxPoint x="530" y="440" as="sourcePoint"/>
                        <Array as="points">
                            <mxPoint x="497" y="440.47"/>
                            <mxPoint x="477" y="440.47"/>
                            <mxPoint x="427" y="440.47"/>
                        </Array>
                        <mxPoint as="offset"/>
                    </mxGeometry>
                </mxCell>
                <mxCell id="2bO-wsEeIPn5QeYOcifV-10" value="error" style="verticalAlign=bottom;endArrow=open;dashed=1;endSize=8;shadow=0;strokeWidth=1;" parent="_-qhiVIwaz4k8V6tLD18-14" edge="1">
                    <mxGeometry relative="1" as="geometry">
                        <mxPoint x="367.5" y="540" as="targetPoint"/>
                        <mxPoint x="527.5" y="540" as="sourcePoint"/>
                        <Array as="points">
                            <mxPoint x="494.5" y="540.47"/>
                            <mxPoint x="474.5" y="540.47"/>
                            <mxPoint x="424.5" y="540.47"/>
                        </Array>
                        <mxPoint as="offset"/>
                    </mxGeometry>
                </mxCell>
                <mxCell id="2bO-wsEeIPn5QeYOcifV-14" value="dÃ©sactiverChampsAdresses()" style="verticalAlign=middle;endArrow=open;dashed=1;endSize=8;shadow=0;strokeWidth=1;" parent="_-qhiVIwaz4k8V6tLD18-14" edge="1">
                    <mxGeometry x="0.0106" y="10" relative="1" as="geometry">
                        <mxPoint x="110.06521739130449" y="306.47" as="targetPoint"/>
                        <mxPoint x="352.5" y="306" as="sourcePoint"/>
                        <Array as="points">
                            <mxPoint x="319.5" y="306.47"/>
                            <mxPoint x="299.5" y="306.47"/>
                            <mxPoint x="249.5" y="306.47"/>
                        </Array>
                        <mxPoint as="offset"/>
                    </mxGeometry>
                </mxCell>
                <mxCell id="pupBB3GUxLn4kr1PuQrB-19" value="echecPriseDeRendezVous()" style="verticalAlign=bottom;endArrow=open;dashed=1;endSize=8;shadow=0;strokeWidth=1;exitX=0.03;exitY=0.71;exitDx=0;exitDy=0;exitPerimeter=0;" parent="1" edge="1">
                    <mxGeometry relative="1" as="geometry">
                        <mxPoint x="1570" y="594" as="targetPoint"/>
                        <mxPoint x="1813" y="594" as="sourcePoint"/>
                        <Array as="points">
                            <mxPoint x="1777" y="594.47"/>
                            <mxPoint x="1757" y="594.47"/>
                            <mxPoint x="1707" y="594.47"/>
                        </Array>
                        <mxPoint as="offset"/>
                    </mxGeometry>
                </mxCell>
                <mxCell id="2bO-wsEeIPn5QeYOcifV-24" value="Alt" style="shape=umlFrame;whiteSpace=wrap;html=1;width=60;height=30;boundedLbl=1;verticalAlign=middle;align=left;spacingLeft=5;" parent="1" vertex="1">
                    <mxGeometry x="860" y="445" width="500" height="180" as="geometry"/>
                </mxCell>
                <mxCell id="2bO-wsEeIPn5QeYOcifV-20" value="confirmationPriseDeRendezVous()" style="verticalAlign=bottom;endArrow=open;dashed=1;endSize=8;shadow=0;strokeWidth=1;" parent="1" source="sxMWDe2W47hRPrV32jub-10" target="sxMWDe2W47hRPrV32jub-14" edge="1">
                    <mxGeometry x="-0.0048" y="-10" relative="1" as="geometry">
                        <mxPoint x="899.5" y="495.47" as="targetPoint"/>
                        <mxPoint x="1140" y="495" as="sourcePoint"/>
                        <Array as="points">
                            <mxPoint x="1107" y="495.47"/>
                            <mxPoint x="1087" y="495.47"/>
                            <mxPoint x="1037" y="495.47"/>
                        </Array>
                        <mxPoint as="offset"/>
                    </mxGeometry>
                </mxCell>
                <mxCell id="2bO-wsEeIPn5QeYOcifV-23" value="echecPriseDeRendezVous()" style="verticalAlign=bottom;endArrow=open;dashed=1;endSize=8;shadow=0;strokeWidth=1;" parent="1" edge="1">
                    <mxGeometry relative="1" as="geometry">
                        <mxPoint x="980" y="585" as="targetPoint"/>
                        <mxPoint x="1160" y="585" as="sourcePoint"/>
                        <Array as="points">
                            <mxPoint x="1107" y="585.47"/>
                            <mxPoint x="1087" y="585.47"/>
                            <mxPoint x="1037" y="585.47"/>
                        </Array>
                        <mxPoint as="offset"/>
                    </mxGeometry>
                </mxCell>
                <mxCell id="Aty5CknLGDB0A0mCFbbI-6" value="" style="endArrow=none;dashed=1;html=1;rounded=0;entryX=1.004;entryY=0.559;entryDx=0;entryDy=0;entryPerimeter=0;exitX=0.004;exitY=0.563;exitDx=0;exitDy=0;exitPerimeter=0;" parent="1" source="2bO-wsEeIPn5QeYOcifV-24" target="2bO-wsEeIPn5QeYOcifV-24" edge="1">
                    <mxGeometry width="50" height="50" relative="1" as="geometry">
                        <mxPoint x="780" y="535" as="sourcePoint"/>
                        <mxPoint x="1473" y="536" as="targetPoint"/>
                    </mxGeometry>
                </mxCell>
                <mxCell id="2bO-wsEeIPn5QeYOcifV-22" value="error" style="verticalAlign=bottom;endArrow=open;dashed=1;endSize=8;shadow=0;strokeWidth=1;" parent="1" edge="1">
                    <mxGeometry relative="1" as="geometry">
                        <mxPoint x="1163" y="571" as="targetPoint"/>
                        <mxPoint x="1320" y="571" as="sourcePoint"/>
                        <Array as="points">
                            <mxPoint x="1277.5" y="571.47"/>
                            <mxPoint x="1257.5" y="571.47"/>
                            <mxPoint x="1207.5" y="571.47"/>
                        </Array>
                        <mxPoint as="offset"/>
                    </mxGeometry>
                </mxCell>
                <mxCell id="2bO-wsEeIPn5QeYOcifV-19" value="[false]" style="text;html=1;strokeColor=none;fillColor=none;align=center;verticalAlign=middle;whiteSpace=wrap;rounded=0;" parent="1" vertex="1">
                    <mxGeometry x="900" y="555" width="60" height="30" as="geometry"/>
                </mxCell>
                <mxCell id="2bO-wsEeIPn5QeYOcifV-18" value="[true]" style="text;html=1;strokeColor=none;fillColor=none;align=center;verticalAlign=middle;whiteSpace=wrap;rounded=0;" parent="1" vertex="1">
                    <mxGeometry x="900" y="475" width="60" height="30" as="geometry"/>
                </mxCell>
            </root>
        </mxGraphModel>
    </diagram>
    <diagram id="9H1hMA6G1UujsmkngrkB" name="Diagramme d'activitÃ©">
        <mxGraphModel dx="1477" dy="851" grid="1" gridSize="10" guides="1" tooltips="1" connect="1" arrows="1" fold="1" page="1" pageScale="1" pageWidth="827" pageHeight="1169" math="0" shadow="0">
            <root>
                <mxCell id="0"/>
                <mxCell id="1" parent="0"/>
                <mxCell id="lln4QhVDE2912nqivmfB-19" value="" style="edgeStyle=orthogonalEdgeStyle;rounded=0;orthogonalLoop=1;jettySize=auto;html=1;" parent="1" source="7cxOvsxQopkfBgmIFCdu-4" target="HKAKjdn9-d01hglAqewm-5" edge="1">
                    <mxGeometry relative="1" as="geometry"/>
                </mxCell>
                <mxCell id="7cxOvsxQopkfBgmIFCdu-4" value="CrÃ©er une demande de rendez-vous" style="html=1;align=center;verticalAlign=middle;rounded=1;absoluteArcSize=1;arcSize=60;dashed=0;whiteSpace=wrap;" parent="1" vertex="1">
                    <mxGeometry x="345" y="350" width="140" height="40" as="geometry"/>
                </mxCell>
                <mxCell id="7cxOvsxQopkfBgmIFCdu-16" style="edgeStyle=orthogonalEdgeStyle;rounded=0;orthogonalLoop=1;jettySize=auto;html=1;exitX=0.5;exitY=1;exitDx=0;exitDy=0;" parent="1" source="HKAKjdn9-d01hglAqewm-4" target="7cxOvsxQopkfBgmIFCdu-21" edge="1">
                    <mxGeometry relative="1" as="geometry">
                        <mxPoint x="416" y="690" as="targetPoint"/>
                        <mxPoint x="416" y="640" as="sourcePoint"/>
                    </mxGeometry>
                </mxCell>
                <mxCell id="7cxOvsxQopkfBgmIFCdu-20" style="edgeStyle=orthogonalEdgeStyle;rounded=0;orthogonalLoop=1;jettySize=auto;html=1;entryX=0;entryY=0.5;entryDx=0;entryDy=0;exitX=0.5;exitY=1;exitDx=0;exitDy=0;" parent="1" source="7cxOvsxQopkfBgmIFCdu-17" target="HKAKjdn9-d01hglAqewm-4" edge="1">
                    <mxGeometry relative="1" as="geometry">
                        <mxPoint x="304" y="609.4200000000001" as="targetPoint"/>
                        <Array as="points">
                            <mxPoint x="304" y="625"/>
                        </Array>
                    </mxGeometry>
                </mxCell>
                <mxCell id="7cxOvsxQopkfBgmIFCdu-17" value="Remplissage automatique des champs d'adresse" style="html=1;align=center;verticalAlign=middle;rounded=1;absoluteArcSize=1;arcSize=60;dashed=0;whiteSpace=wrap;" parent="1" vertex="1">
                    <mxGeometry x="234" y="510" width="140" height="60" as="geometry"/>
                </mxCell>
                <mxCell id="7cxOvsxQopkfBgmIFCdu-23" style="edgeStyle=orthogonalEdgeStyle;rounded=0;orthogonalLoop=1;jettySize=auto;html=1;" parent="1" source="7cxOvsxQopkfBgmIFCdu-21" target="7cxOvsxQopkfBgmIFCdu-22" edge="1">
                    <mxGeometry relative="1" as="geometry"/>
                </mxCell>
                <mxCell id="7cxOvsxQopkfBgmIFCdu-21" value="Remplir les champs de formulaire" style="html=1;align=center;verticalAlign=middle;rounded=1;absoluteArcSize=1;arcSize=60;dashed=0;whiteSpace=wrap;" parent="1" vertex="1">
                    <mxGeometry x="346" y="680" width="140" height="40" as="geometry"/>
                </mxCell>
                <mxCell id="7cxOvsxQopkfBgmIFCdu-24" style="edgeStyle=orthogonalEdgeStyle;rounded=0;orthogonalLoop=1;jettySize=auto;html=1;entryX=1;entryY=0.5;entryDx=0;entryDy=0;" parent="1" source="7cxOvsxQopkfBgmIFCdu-22" target="7cxOvsxQopkfBgmIFCdu-21" edge="1">
                    <mxGeometry relative="1" as="geometry">
                        <Array as="points">
                            <mxPoint x="506" y="775"/>
                            <mxPoint x="506" y="700"/>
                        </Array>
                    </mxGeometry>
                </mxCell>
                <mxCell id="lln4QhVDE2912nqivmfB-2" value="" style="edgeStyle=orthogonalEdgeStyle;rounded=0;orthogonalLoop=1;jettySize=auto;html=1;" parent="1" source="7cxOvsxQopkfBgmIFCdu-22" edge="1">
                    <mxGeometry relative="1" as="geometry">
                        <mxPoint x="416" y="850" as="targetPoint"/>
                    </mxGeometry>
                </mxCell>
                <mxCell id="7cxOvsxQopkfBgmIFCdu-22" value="" style="rhombus;" parent="1" vertex="1">
                    <mxGeometry x="401" y="760" width="30" height="30" as="geometry"/>
                </mxCell>
                <mxCell id="7cxOvsxQopkfBgmIFCdu-25" value="[champ(s) manquant(s)]" style="text;html=1;align=center;verticalAlign=middle;resizable=0;points=[];autosize=1;strokeColor=none;fillColor=none;" parent="1" vertex="1">
                    <mxGeometry x="449" y="768" width="150" height="30" as="geometry"/>
                </mxCell>
                <mxCell id="7cxOvsxQopkfBgmIFCdu-32" value="" style="edgeStyle=orthogonalEdgeStyle;rounded=0;orthogonalLoop=1;jettySize=auto;html=1;entryX=0.5;entryY=0;entryDx=0;entryDy=0;" parent="1" source="7cxOvsxQopkfBgmIFCdu-26" target="HKAKjdn9-d01hglAqewm-3" edge="1">
                    <mxGeometry relative="1" as="geometry">
                        <mxPoint x="416" y="940" as="targetPoint"/>
                    </mxGeometry>
                </mxCell>
                <mxCell id="7cxOvsxQopkfBgmIFCdu-26" value="Confirmation de prise de rendez-vous" style="html=1;align=center;verticalAlign=middle;rounded=1;absoluteArcSize=1;arcSize=60;dashed=0;whiteSpace=wrap;" parent="1" vertex="1">
                    <mxGeometry x="346" y="970" width="140" height="40" as="geometry"/>
                </mxCell>
                <mxCell id="lln4QhVDE2912nqivmfB-20" value="" style="edgeStyle=orthogonalEdgeStyle;rounded=0;orthogonalLoop=1;jettySize=auto;html=1;" parent="1" source="HKAKjdn9-d01hglAqewm-1" target="7cxOvsxQopkfBgmIFCdu-4" edge="1">
                    <mxGeometry relative="1" as="geometry"/>
                </mxCell>
                <mxCell id="HKAKjdn9-d01hglAqewm-1" value="" style="ellipse;html=1;shape=startState;fillColor=#000000;strokeColor=#ff0000;" parent="1" vertex="1">
                    <mxGeometry x="400" y="249" width="30" height="30" as="geometry"/>
                </mxCell>
                <mxCell id="HKAKjdn9-d01hglAqewm-3" value="" style="ellipse;html=1;shape=endState;fillColor=#000000;strokeColor=#ff0000;" parent="1" vertex="1">
                    <mxGeometry x="401" y="1050" width="30" height="30" as="geometry"/>
                </mxCell>
                <mxCell id="HKAKjdn9-d01hglAqewm-4" value="" style="rhombus;" parent="1" vertex="1">
                    <mxGeometry x="401" y="610" width="30" height="30" as="geometry"/>
                </mxCell>
                <mxCell id="lln4QhVDE2912nqivmfB-14" style="edgeStyle=orthogonalEdgeStyle;rounded=0;orthogonalLoop=1;jettySize=auto;html=1;" parent="1" source="HKAKjdn9-d01hglAqewm-5" target="7cxOvsxQopkfBgmIFCdu-17" edge="1">
                    <mxGeometry relative="1" as="geometry"/>
                </mxCell>
                <mxCell id="lln4QhVDE2912nqivmfB-17" style="edgeStyle=orthogonalEdgeStyle;rounded=0;orthogonalLoop=1;jettySize=auto;html=1;" parent="1" source="HKAKjdn9-d01hglAqewm-5" target="lln4QhVDE2912nqivmfB-16" edge="1">
                    <mxGeometry relative="1" as="geometry"/>
                </mxCell>
                <mxCell id="HKAKjdn9-d01hglAqewm-5" value="" style="rhombus;" parent="1" vertex="1">
                    <mxGeometry x="400" y="430" width="30" height="30" as="geometry"/>
                </mxCell>
                <mxCell id="lln4QhVDE2912nqivmfB-10" value="" style="edgeStyle=orthogonalEdgeStyle;rounded=0;orthogonalLoop=1;jettySize=auto;html=1;" parent="1" source="lln4QhVDE2912nqivmfB-4" target="7cxOvsxQopkfBgmIFCdu-26" edge="1">
                    <mxGeometry relative="1" as="geometry"/>
                </mxCell>
                <mxCell id="lln4QhVDE2912nqivmfB-4" value="" style="rhombus;" parent="1" vertex="1">
                    <mxGeometry x="401" y="850" width="30" height="30" as="geometry"/>
                </mxCell>
                <mxCell id="lln4QhVDE2912nqivmfB-6" value="[En ligne]" style="text;html=1;align=center;verticalAlign=middle;resizable=0;points=[];autosize=1;strokeColor=none;fillColor=none;" parent="1" vertex="1">
                    <mxGeometry x="439" y="840" width="70" height="30" as="geometry"/>
                </mxCell>
                <mxCell id="lln4QhVDE2912nqivmfB-7" value="" style="edgeStyle=orthogonalEdgeStyle;rounded=0;orthogonalLoop=1;jettySize=auto;html=1;exitX=1;exitY=0.5;exitDx=0;exitDy=0;entryX=0.5;entryY=0;entryDx=0;entryDy=0;" parent="1" source="lln4QhVDE2912nqivmfB-4" target="LdwQMJyFVlJeL55igky3-1" edge="1">
                    <mxGeometry relative="1" as="geometry">
                        <mxPoint x="480" y="833" as="sourcePoint"/>
                        <mxPoint x="570" y="910" as="targetPoint"/>
                    </mxGeometry>
                </mxCell>
                <mxCell id="LdwQMJyFVlJeL55igky3-1" value="GÃ©nÃ©ration d'un lien de visio" style="html=1;align=center;verticalAlign=middle;rounded=1;absoluteArcSize=1;arcSize=60;dashed=0;whiteSpace=wrap;" parent="1" vertex="1">
                    <mxGeometry x="500" y="910" width="140" height="40" as="geometry"/>
                </mxCell>
                <mxCell id="lln4QhVDE2912nqivmfB-8" value="" style="edgeStyle=orthogonalEdgeStyle;rounded=0;orthogonalLoop=1;jettySize=auto;html=1;exitX=0.5;exitY=1;exitDx=0;exitDy=0;entryX=1;entryY=0.5;entryDx=0;entryDy=0;" parent="1" source="LdwQMJyFVlJeL55igky3-1" target="7cxOvsxQopkfBgmIFCdu-26" edge="1">
                    <mxGeometry relative="1" as="geometry">
                        <mxPoint x="426" y="1060" as="targetPoint"/>
                        <mxPoint x="426" y="990" as="sourcePoint"/>
                        <Array as="points">
                            <mxPoint x="570" y="990"/>
                        </Array>
                    </mxGeometry>
                </mxCell>
                <mxCell id="lln4QhVDE2912nqivmfB-11" value="[Ã€ domicile]" style="text;html=1;align=center;verticalAlign=middle;resizable=0;points=[];autosize=1;strokeColor=none;fillColor=none;" parent="1" vertex="1">
                    <mxGeometry x="330" y="880" width="90" height="30" as="geometry"/>
                </mxCell>
                <mxCell id="lln4QhVDE2912nqivmfB-13" value="[A domicile]" style="text;html=1;strokeColor=none;fillColor=none;align=center;verticalAlign=middle;whiteSpace=wrap;rounded=0;" parent="1" vertex="1">
                    <mxGeometry x="320" y="420" width="70" height="30" as="geometry"/>
                </mxCell>
                <mxCell id="lln4QhVDE2912nqivmfB-15" value="[En ligne]" style="text;html=1;strokeColor=none;fillColor=none;align=center;verticalAlign=middle;whiteSpace=wrap;rounded=0;" parent="1" vertex="1">
                    <mxGeometry x="439" y="420" width="60" height="30" as="geometry"/>
                </mxCell>
                <mxCell id="lln4QhVDE2912nqivmfB-18" style="edgeStyle=orthogonalEdgeStyle;rounded=0;orthogonalLoop=1;jettySize=auto;html=1;entryX=1;entryY=0.5;entryDx=0;entryDy=0;" parent="1" source="lln4QhVDE2912nqivmfB-16" target="HKAKjdn9-d01hglAqewm-4" edge="1">
                    <mxGeometry relative="1" as="geometry">
                        <Array as="points">
                            <mxPoint x="529" y="560"/>
                            <mxPoint x="530" y="560"/>
                            <mxPoint x="530" y="625"/>
                        </Array>
                    </mxGeometry>
                </mxCell>
                <mxCell id="lln4QhVDE2912nqivmfB-16" value="DÃ©sactivation des champs d'adresse" style="html=1;align=center;verticalAlign=middle;rounded=1;absoluteArcSize=1;arcSize=60;dashed=0;whiteSpace=wrap;" parent="1" vertex="1">
                    <mxGeometry x="459" y="510" width="140" height="60" as="geometry"/>
                </mxCell>
            </root>
        </mxGraphModel>
    </diagram>
</mxfile>